<?xml version="1.0" encoding="UTF-8" standalone="no"?>
<!-- Created with Inkscape (http://www.inkscape.org/) -->

<svg
   xmlns:dc="http://purl.org/dc/elements/1.1/"
   xmlns:cc="http://creativecommons.org/ns#"
   xmlns:rdf="http://www.w3.org/1999/02/22-rdf-syntax-ns#"
   xmlns:svg="http://www.w3.org/2000/svg"
   xmlns="http://www.w3.org/2000/svg"
   xmlns:sodipodi="http://sodipodi.sourceforge.net/DTD/sodipodi-0.dtd"
   xmlns:inkscape="http://www.inkscape.org/namespaces/inkscape"
   width="210mm"
   height="297mm"
   viewBox="0 0 210 297"
   version="1.1"
   id="svg8"
   inkscape:version="0.92.2 (unknown)"
   sodipodi:docname="DWSIM_logo.svg">
  <defs
     id="defs2" />
  <sodipodi:namedview
     id="base"
     pagecolor="#ffffff"
     bordercolor="#666666"
     borderopacity="1.0"
     inkscape:pageopacity="0.0"
     inkscape:pageshadow="2"
     inkscape:zoom="0.59663278"
     inkscape:cx="279.38082"
     inkscape:cy="849.22403"
     inkscape:document-units="mm"
     inkscape:current-layer="layer1"
     showgrid="false"
     inkscape:window-width="1865"
     inkscape:window-height="1056"
     inkscape:window-x="55"
     inkscape:window-y="24"
     inkscape:window-maximized="1"
     showguides="true"
     inkscape:guide-bbox="true"
     inkscape:snap-global="false" />
  <metadata
     id="metadata5">
    <rdf:RDF>
      <cc:Work
         rdf:about="">
        <dc:format>image/svg+xml</dc:format>
        <dc:type
           rdf:resource="http://purl.org/dc/dcmitype/StillImage" />
        <dc:title></dc:title>
      </cc:Work>
    </rdf:RDF>
  </metadata>
  <g
     inkscape:label="Layer 1"
     inkscape:groupmode="layer"
     id="layer1">
    <path
       id="path1121-6"
       d="m 105.75734,95.102156 c -3.1729,7.94e-4 -6.036351,1.876462 -7.316351,4.767672 -2.000393,0.0102 -3.742009,0.0251 -4.737694,0.0501 -0.271347,-0.01336 -0.293318,0.0466 -0.295562,0.200322 l 0.0021,5.0288 c 0.007,0.17212 0.110098,0.2735 0.21497,0.30489 0.06345,-0.002 0.137113,-0.003 0.201023,-0.005 v 1.77922 c 0.571738,-0.0275 1.144349,-0.0484 1.716692,-0.0718 V 109.38 c 0.703008,-0.0461 1.406882,-0.0845 2.110981,-0.12093 v 3.55121 h -2.469617 -1.233517 -5.388306 -1.23351 v 1.23351 8.76381 1.23352 8.6987 1.23352 8.82892 1.23351 8.82892 1.233 8.82891 1.23352 10.30996 h -3.40294 l 0.0191,-63.91445 c 0.0168,-0.54094 0.0144,-1.01589 0,-1.46451 -0.0147,-0.45862 -0.0623,-0.88987 -0.1757,-1.3348 -0.26629,-0.93513 -0.78511,-1.63631 -1.387,-2.13579 -0.91595,-0.76009 -2.02376,-1.05287 -2.72438,-0.99166 -1.32411,0.0397 -2.38858,0.55626 -3.1533,1.48311 -0.80436,0.9749 -1.27705,2.40373 -1.37046,4.20904 -1.33084,0.67822 -1.45519,2.24705 -1.4552,2.97398 v 0.94723 c -0.11193,-0.0165 -0.2309,-0.0311 -0.36484,-0.0444 -0.2151,-0.0215 -0.45419,-0.0369 -0.70745,-0.0444 -0.289601,0.001 -0.526606,-0.009 -0.79274,0.002 -1.06702,0.0347 -2.18677,0.18236 -2.80189,0.62063 -3.34e-4,1.8e-4 -6.67e-4,3.6e-4 -10e-4,5.3e-4 -0.01872,0.008 -0.03584,0.0199 -0.0506,0.0341 -0.0031,0.003 -0.0061,0.006 -0.009,0.009 -0.001,9.9e-4 -0.002,0.002 -0.003,0.003 -0.0021,0.002 -0.0041,0.005 -0.006,0.007 -0.03523,0.0422 -0.03639,0.0859 -0.0367,0.15193 -0.0073,0.63606 0,1.27141 0,1.89549 -0.01807,0.25203 0.369977,0.25203 0.35191,0 v -0.29256 c 0.778,-0.38265 1.66059,-0.58796 2.56214,-0.6165 v 1.53014 c -1.0671,0.003 -2.18841,0.11866 -2.80706,0.55811 -0.01936,0.008 -0.03704,0.0204 -0.0522,0.0351 -0.0036,0.003 -0.007,0.007 -0.0103,0.0104 -6.72e-4,6.7e-4 -0.0013,0.001 -0.002,0.002 -0.0021,0.002 -0.0041,0.005 -0.006,0.007 -0.03459,0.0417 -0.03572,0.0948 -0.0367,0.14986 -5.32e-4,0.75159 0,1.50763 0,2.25566 -0.01796,0.25194 0.369879,0.25194 0.35192,0 v -0.1622 c 0.77278,-0.3729 1.65552,-0.48881 2.56212,-0.43511 v 1.58595 h -2.53163 c -0.1653,0 -0.29869,0.13339 -0.29869,0.29869 v 0.22324 c 0,0.16529 0.13339,0.29869 0.29869,0.29869 h 0.52968 c -0.27086,0.52541 0.16,1.25368 0.69143,1.3348 v 49.97731 c 0.003,0.70044 0.0111,1.075 0.0465,1.66605 0.1475,1.79224 0.83875,3.02445 1.89342,4.14083 1.55042,1.64111 3.7964,2.59881 6.46473,2.59881 h 54.973901 c 2.45337,0 4.87906,-0.99517 6.4301,-2.64428 0.78242,-0.83188 1.28946,-1.83753 1.62264,-2.94349 0.26688,-0.75645 0.4444,-2.0542 0.4625,-3.12126 v -0.6351 -42.97618 c 0.4303,-0.24042 0.72038,-0.6995 0.72038,-1.22939 0,-0.52987 -0.29008,-0.98896 -0.72038,-1.22938 v -8.84443 h 0.83458 v -2.16989 h -3.93361 v -2.55385 c 0.0778,-2.22755 -1.32454,-3.47307 -2.97243,-3.51761 -2.05562,0.0692 -3.04439,1.47911 -2.97294,3.33157 v 2.73989 H 129.36 v 2.16989 h 1.911 c 0.12164,1.09265 0.99033,1.95277 2.08721,2.06034 v 4.76199 h -0.0501 c -1.01879,0 -1.83917,0.81985 -1.83917,1.83864 v 0.005 h -0.46974 c -0.78016,0 -1.40818,0.62803 -1.40818,1.40819 0,0.78017 0.62802,1.40819 1.40818,1.40819 h 0.47129 c 0.0159,1.00491 0.8288,1.80919 1.83762,1.80919 h 0.0501 v 42.75901 h -2.93112 v -28.43133 c 0.57738,-10.30867 -5.3736,-20.16674 -13.8007,-20.6587 v -1.32757 h -2.8603 v -14.79806 c 0.74178,0.0373 1.48382,0.0777 2.22674,0.12506 v -2.22209 c 0.57233,0.023 1.1443,0.0436 1.71721,0.0703 v -1.90428 c 0.0253,-3e-5 0.16259,5.3e-4 0.18242,5.3e-4 0.2227,0.001 0.21384,-0.0556 0.21549,-0.24333 l 0.0636,-5.01002 c 0.003,-0.147184 -0.0619,-0.186876 -0.17582,-0.197502 -0.008,1.06e-4 -0.0162,7.74e-4 -0.0243,0.002 -0.0108,-4e-5 -3.17546,-0.006 -4.90616,-0.0103 -1.27993,-2.88684 -4.13888,-4.760347 -7.30803,-4.763551 z m 8.00881,5.176434 c 1.23575,0.004 3.98747,0.008 4.05144,0.008 l -0.0284,2.08823 c -0.051,-1.9e-4 -2.79406,-0.005 -4.02301,-0.008 z m -16.228465,-0.003 v 2.09934 c -1.605044,0.0103 -2.816414,0.0234 -3.676778,0.0444 l -5.29e-4,-2.12273 c 0.857536,-0.021 2.069456,-0.0107 3.677297,-0.021 z m 16.228465,2.52004 c 1.22561,0.004 3.96585,0.009 4.01836,0.009 l -0.0295,2.10215 c -0.44257,8e-4 -1.99242,-0.007 -3.9889,-0.016 z m -16.211929,-0.003 v 2.14096 c -1.350306,0.0213 -2.467145,0.0466 -3.692282,0.0806 l -5.29e-4,-2.17714 c 0.855916,-0.021 2.08483,-0.0343 3.692798,-0.0444 z m -17.84542,3.99149 c 0.75027,-0.0259 1.47375,0.54264 1.73839,1.46503 0.14303,0.64449 0.0977,1.32585 0.0977,2.01434 v 10.82828 h -1.75751 v -6.01255 c 0.0262,-1.07932 0.0368,-1.54922 -0.0408,-3.14451 -0.19747,-1.12279 -0.63625,-1.73291 -1.97094,-2.02106 -0.004,-2.41011 1.06238,-3.09954 1.93321,-3.12953 z m 8.8532,7.2595 h 5.388306 v 8.76381 h -5.388306 z m 6.621823,0 h 2.469616 v 8.76381 h -2.469616 z m -22.587773,0.46199 c 0.2458,0.008 0.47701,0.0229 0.68265,0.0434 0.15821,0.0158 0.28857,0.0373 0.39997,0.0599 v 1.23456 c -0.49668,-0.11817 -1.00283,-0.1886 -1.5074,-0.20413 v -1.13326 c 0.14259,-5.3e-4 0.28927,-0.005 0.42478,-5.3e-4 z m -0.77669,0.001 v 1.13637 c -0.89319,0.016 -1.7707,0.19205 -2.56212,0.55139 v -1.15708 c 0.48744,-0.31404 1.55325,-0.4973 2.56212,-0.53072 z m 0.35191,1.45883 c 0.50507,0.01 1.01209,0.0762 1.5074,0.19792 v 1.47691 c -0.11026,-0.0192 -0.22734,-0.0374 -0.35915,-0.0543 -0.33439,-0.0429 -0.73415,-0.0669 -1.14825,-0.0775 z m -0.35191,1.88619 v 1.73116 c -0.88883,-0.0593 -1.76607,0.0337 -2.56212,0.37982 v -1.64335 c 0.48536,-0.30963 1.55197,-0.46468 2.56212,-0.46767 z m 0.35191,0.01 c 0.39962,0.0103 0.78552,0.0336 1.1033,0.0744 0.15995,0.0205 0.29165,0.0461 0.4041,0.0718 v 1.78336 h -0.45733 c -0.34781,-0.0789 -0.69893,-0.14277 -1.05007,-0.18193 z m 69.021629,1.27486 v 7.94887 h -0.0341 v -0.005 c 0,-1.01879 -0.82037,-1.83865 -1.83916,-1.83865 h -0.016 v -4.76095 c 0.84319,-0.0817 1.55044,-0.60903 1.88929,-1.34411 z m -61.405549,3.18895 h 1.75751 v 7.12101 h -1.75751 z m 9.85573,1.71566 h 4.307226 v 3.23339 z m 5.540743,0 h 2.469616 v 1.14308 l -2.469616,1.85415 z m -6.621823,0.7307 4.820381,3.61839 -4.820381,3.61838 z m 9.091439,1.95492 v 3.32743 l -2.216401,-1.66388 z m -3.703133,2.77968 v 3.23339 h -4.307746 z m 1.233517,0.23616 2.469616,1.85415 v 1.14308 h -2.469616 z m 45.973426,0.15916 h 0.0357 v 44.35904 c 0,0.0339 0.004,0.0668 0.01,0.0992 -0.42155,0.0716 -0.8545,0.11007 -1.29708,0.11007 h -0.60203 V 131.7108 h 0.016 c 1.00882,0 1.82176,-0.8043 1.83761,-1.8092 z m -61.369899,0.77825 h 1.75751 v 6.79958 h -1.75751 z m 36.839099,3.04475 c 3.65674,1.06168 6.68751,6.65853 6.26628,11.78894 v 28.9564 h -4.81211 v -27.5022 c 0.0723,-4.06419 -1.84465,-6.65868 -4.31447,-8.26564 v -3.67006 h 2.8603 z m -28.064449,0.24856 h 5.388306 v 8.82892 h -5.388306 z m 6.621823,0 h 2.469616 v 4.86379 c -0.935889,0.63612 -1.785117,1.40736 -2.469616,2.32182 z m -15.396473,4.73976 h 1.75751 v 7.27036 h -1.75751 z m 9.94202,5.32268 h 4.061773 c -0.153162,0.58743 -0.250507,1.21106 -0.275436,1.87637 0.0011,0.0262 0.0021,0.0523 0.0041,0.0786 v 0.88987 z m -1.16737,0.66611 4.957324,3.7207 v 0.0382 l -4.957324,3.72122 z m -8.77465,2.51509 h 1.75751 v 6.94634 h -1.75751 z m 13.731974,2.78587 v 2.86185 h -3.812174 z m -4.957324,4.09485 h 4.957324 v 8.8289 h -4.957324 z m -8.77465,1.29914 h 1.75751 v 6.94582 h -1.75751 z m 0,8.17934 h 1.75751 v 7.20576 h -1.75751 z m 9.94151,0.58394 h 3.790464 v 2.8453 z m -1.16686,0.66611 4.939237,3.70778 -4.939237,3.70779 z m 4.957324,5.23637 v 2.78898 h -3.715534 z m -13.731974,1.95285 h 1.75751 v 2.45463 h -1.75751 z"
       style="color:#000000;font-style:normal;font-variant:normal;font-weight:normal;font-stretch:normal;font-size:medium;line-height:normal;font-family:sans-serif;font-variant-ligatures:normal;font-variant-position:normal;font-variant-caps:normal;font-variant-numeric:normal;font-variant-alternates:normal;font-feature-settings:normal;text-indent:0;text-align:start;text-decoration:none;text-decoration-line:none;text-decoration-style:solid;text-decoration-color:#000000;letter-spacing:normal;word-spacing:normal;text-transform:none;writing-mode:lr-tb;direction:ltr;text-orientation:mixed;dominant-baseline:auto;baseline-shift:baseline;text-anchor:start;white-space:normal;shape-padding:0;clip-rule:nonzero;display:inline;overflow:visible;visibility:visible;opacity:1;isolation:auto;mix-blend-mode:normal;color-interpolation:sRGB;color-interpolation-filters:linearRGB;solid-color:#000000;solid-opacity:1;vector-effect:none;fill:#359fd4;fill-opacity:1;fill-rule:nonzero;stroke:none;stroke-width:0.1;stroke-linecap:round;stroke-linejoin:round;stroke-miterlimit:4;stroke-dasharray:none;stroke-dashoffset:0;stroke-opacity:1;paint-order:markers fill stroke;color-rendering:auto;image-rendering:auto;shape-rendering:auto;text-rendering:auto;enable-background:accumulate"
       inkscape:connector-curvature="0"
       sodipodi:nodetypes="ccccccccccccccccccccccccccccccccccccccccccccccccccccccccccccccccsssscccccsscccccsccccccccccccccsscssscsccccccccccccccccccccccccccccccccccccccccccccscccccccccccccccccccccccccccccccccccccccccccccccccccccsscccccccccccccccccccccccccccccccccccccscsccsccccccccccccccccccccccccccccccccccccccccccacccacccccccccccccccccccccccccccccccccccc"
       inkscape:export-filename="/home/khushal/DWSIM_logo.png"
       inkscape:export-xdpi="300"
       inkscape:export-ydpi="300" />
  </g>
</svg>
