<svg width="243" height="75" viewBox="0 0 243 75" fill="none" xmlns="http://www.w3.org/2000/svg">
<mask id="mask0_32_31" style="mask-type:luminance" maskUnits="userSpaceOnUse" x="0" y="0" width="243" height="75">
<path d="M242.667 0H0V74.6667H242.667V0Z" fill="white"/>
</mask>
<g mask="url(#mask0_32_31)">
<mask id="mask1_32_31" style="mask-type:luminance" maskUnits="userSpaceOnUse" x="0" y="0" width="179" height="74">
<path d="M0.541748 0.0263672H178.667V73.766H0.541748V0.0263672Z" fill="white"/>
</mask>
<g mask="url(#mask1_32_31)">
<path d="M50.0418 47.1823C46.0783 49.4062 42.2137 51.6094 38.3179 53.7604C37.4429 54.2396 37.021 54.9062 36.8908 55.8542C36.6095 57.9271 36.3439 60 36.0783 62.0729C35.9429 63.1406 37.0314 63.776 36.672 64.8229C36.5262 65.2396 36.7814 65.8333 36.0939 65.9479C35.5783 65.7604 36.1356 65.25 35.7814 65.0312C34.0106 65.7292 33.6772 65.4219 33.7918 63.5729C33.9377 61.099 34.6356 58.6771 34.5054 56.099C33.7085 56.1927 33.12 56.5937 32.5002 56.9167C25.5158 60.5469 18.547 64.2083 11.5366 67.7865C8.93245 69.1146 6.16683 70.0885 3.396 71.0208C2.646 71.276 1.91162 71.2083 1.06787 71.1927C1.50016 69.7187 2.59391 69.0937 3.80225 68.6302C7.03662 67.3854 10.3752 66.4271 13.5262 64.9531C19.4116 62.1979 25.0939 59.0365 30.8595 56.0417C31.3335 55.7969 31.771 55.4479 32.271 55.2917C34.4637 54.6146 35.0002 52.9583 35.2189 50.8906C35.6043 47.2604 35.5679 43.6302 35.7085 39.9948C35.745 39.099 35.8856 38.2292 36.1981 37.3854C36.2606 37.2187 36.3804 37.026 36.3439 36.8802C36.0054 35.3698 36.2033 34.3125 38.1147 34.2812C38.4793 34.2708 38.6147 33.5677 38.6356 33.1302C38.9793 27.0469 40.4689 21.0677 40.3647 14.9479C40.3491 13.7552 40.1147 12.5729 40.0314 11.3802C39.9793 10.6771 39.8804 9.86979 40.7814 9.59895C41.672 9.33333 41.7293 10.3229 42.1825 10.6146C43.8179 11.6667 42.5262 13.2083 43.0262 14.4479C43.7502 16.2552 43.1408 18.2656 43.8752 20.1927C46.8491 28.0052 49.9012 35.7865 52.9897 43.651C54.4533 43.1771 55.62 42.276 56.8908 41.599C58.3856 40.8125 59.797 39.8646 61.271 39.0417C61.9429 38.6667 62.2866 38.3333 61.922 37.4844C61.5731 36.6875 61.7502 35.901 62.6356 35.4479C63.3283 35.0885 64.0054 35.099 64.3335 35.8646C64.6825 36.6927 65.1408 36.6719 65.7866 36.3177C66.021 36.1875 66.271 36.0781 66.521 36C67.12 35.8177 67.7606 35.849 68.0522 36.4323C68.3595 37.0469 67.8179 37.4687 67.3283 37.6615C65.896 38.2187 65.6877 39.0417 66.3075 40.4427C67.1668 42.4062 67.0835 44.625 67.7085 46.6719C67.9637 47.5052 68.2085 48.3385 68.9793 48.9635C68.5054 47.4792 69.5366 46.4219 69.9012 45.1927C70.8543 41.9948 71.5783 38.7396 72.0887 35.4375C72.2606 34.2969 72.4793 33.1615 72.7085 32.0312C72.8283 31.4479 73.047 30.8906 73.7293 30.7656C74.3335 30.651 74.7137 31.026 75.0835 31.4427C76.3647 32.8802 76.9168 34.6823 77.5783 36.4167C78.2866 38.2865 78.8283 40.2187 79.5158 42.1042C79.9168 43.2083 80.4533 44.2656 81.6095 44.7917C83.245 40.6927 84.0054 36.474 85.6981 32.5573C85.8908 32.1094 86.0575 31.6302 86.3439 31.25C86.922 30.4896 87.896 30.6406 88.2189 31.5469C88.7918 33.1406 89.146 34.7656 89.0314 36.5052C88.6668 42.099 88.6772 47.7083 88.5835 53.3125C88.5679 54.151 88.6981 54.9948 88.7918 56.2135C90.8231 48.4948 93.5522 41.3646 95.1825 33.9167C95.5887 32.0521 95.797 30.1458 96.0939 28.2552C96.2918 27.0104 96.8335 26.7708 97.9325 27.4115C98.6772 27.8437 99.0054 28.5312 99.2814 29.3125C100.151 31.7917 101.016 34.2604 101.25 37.0625C102.761 33.8906 102.266 30.5937 102.807 27.4635C102.86 27.1562 102.86 26.8385 102.948 26.5417C103.125 25.9375 103.318 25.3021 104.136 25.3281C104.886 25.349 105.172 25.849 105.37 26.5104C105.917 28.349 105.974 30.2812 106.432 32.1354C106.677 33.1406 106.886 34.4531 107.958 34.5833C109.037 34.7135 109.339 33.3177 109.714 32.5104C110.641 30.4948 111.365 28.3906 112.151 26.3125C112.776 24.6615 114.042 23.4219 114.922 21.9323C115.547 20.8698 115.938 20.026 114.943 18.9531C114.281 18.2396 114.589 17.375 115.078 16.6094C115.417 16.0833 115.912 15.8646 116.453 16.1198C117.24 16.4844 118.412 16.8802 118.141 17.901C117.568 20.0729 118.766 21.6771 119.531 23.4167C120.245 25.0208 120.906 26.6406 121.521 28.7344C122.224 26.974 122.781 25.5937 123.333 24.2135C125.177 19.5833 126.636 14.8021 128.724 10.2708C129.787 7.97395 131.125 5.80729 131.818 3.34895C131.948 2.8802 132.162 2.41666 132.182 1.9427C132.24 0.755203 132.875 0.411454 133.948 0.531246C135.224 0.666662 135.115 1.57812 134.985 2.42187C134.839 3.34895 134.438 4.21874 133.901 4.98958C132.656 6.78125 132.209 8.8125 132.151 10.9219C132.068 13.9479 132.099 16.9792 132.099 20.0052C132.099 20.5729 132.156 21.1458 132.604 21.724C133.531 19.9792 135.245 18.9271 136.031 17.1406C136.203 16.7552 136.557 16.4167 136.896 16.1458C138.078 15.2031 139.016 15.526 139.287 17.0156C139.537 18.3646 139.594 19.75 139.886 21.0885C140.224 22.6302 140.505 24.224 141.828 25.6667C142.656 23.7448 144.448 22.8021 145.344 21.1198C145.985 19.9115 146.886 18.9687 147.943 18.125C149.755 16.6667 151.776 16.7135 153.443 18.3437C153.823 18.7135 154.162 19.1354 154.485 19.5573C155.594 21.0156 156.193 21.2552 157.865 20.6406C162.412 18.9687 166.396 16.4531 169.49 12.6615C169.766 12.3281 170.057 12.0781 170.5 12.151C170.953 12.2292 171.125 12.5833 171.261 12.9896C171.901 14.8646 172.438 15.0833 174.266 14.5729C175.188 14.3125 176.177 14.099 177.156 14.2396C177.688 14.3125 178.214 14.5573 178.302 15.1979C178.386 15.8125 177.912 16.0208 177.464 16.2552C174.474 17.8125 172.36 17.5625 169.662 15.2344C166.688 18.2344 162.865 19.9896 159.271 22.099C158.209 22.7187 157.094 23.1146 155.865 23.1146C154.667 23.1198 153.719 22.6354 153.084 21.5833C152.714 20.9792 152.349 20.3542 151.896 19.8125C150.828 18.5208 149.964 18.5417 148.787 19.7187C147.354 21.151 146.297 22.849 145.146 24.4844C144.526 25.3542 143.922 26.2344 143.271 27.0833C142.464 28.1406 141.459 28.2344 140.375 27.4219C138.625 26.099 138.229 24.1146 137.849 22.151C137.625 21 137.594 19.8073 137.438 18.2604C136.25 20.2708 135.182 21.9271 133.875 23.4167C133.292 24.0729 132.719 24.776 131.781 24.599C130.797 24.4115 130.625 23.4531 130.391 22.651C130.031 21.4427 130.047 20.1875 130.057 18.9375C130.073 16.4896 130.063 14.0469 130.063 11.4844C129.266 12.5677 128.995 13.7552 128.578 14.8854C126.688 19.974 124.828 25.0677 122.833 30.1146C122.104 31.9635 122.313 33.8854 121.974 35.7552C121.651 37.5417 120.354 38.5729 119.333 39.8281C119 40.2396 118.542 40.0104 118.396 39.5625C118.193 38.9375 117.886 38.2292 118 37.6302C118.25 36.349 118.354 34.974 119.047 33.849C119.469 33.1562 119.729 32.5312 119.651 31.7448C119.328 28.4115 118.037 25.4219 116.458 22.2656C114.823 24.6354 113.49 26.9062 112.542 29.3854C111.896 31.0885 111.724 32.9479 110.823 34.5677C110.182 35.7135 109.557 36.9375 108.011 36.875C106.453 36.8177 105.547 35.7917 104.985 34.4219C104.818 34.0104 104.641 33.6042 104.36 32.9219C104.24 33.6198 103.995 34.1198 104.12 34.4948C104.875 36.8073 103.276 38.4062 102.406 40.1771C101.802 41.4062 100.641 41.25 99.9481 40.0208C99.3856 39.026 99.245 37.9167 99.0835 36.8177C98.8075 34.9635 98.1512 33.2292 97.2918 31.4479C96.7918 33.3385 96.2554 35.2187 95.8022 37.1198C94.7918 41.3177 93.4741 45.4219 92.2866 49.5677C91.0731 53.8333 89.521 58.0365 89.4897 62.5573C89.4845 62.9115 89.3908 63.3021 89.5106 63.6094C90.5314 66.2708 89.7033 68.9844 89.7762 71.6719C89.7866 72.0156 89.6825 72.3802 89.5627 72.7083C89.3856 73.1979 89.0418 73.5521 88.4793 73.5417C87.9533 73.5312 87.6981 73.1823 87.5522 72.724C87.0731 71.2187 86.4429 69.7812 86.7918 68.099C87.3543 65.4115 87.0679 62.6979 86.7762 60C86.2814 55.5156 86.6147 51.0156 86.547 46.5208C86.5002 43.1875 86.646 39.849 87.0054 36.526C87.0366 36.1979 87.0054 35.8646 86.8804 35.5104C85.922 37.75 85.0522 40.0052 84.8127 42.4375C84.6564 44.0469 83.8752 45.3958 83.1095 46.7396C82.5731 47.6979 81.5106 47.7344 80.4429 46.9167C78.6512 45.5417 77.5835 43.6771 76.9064 41.5417C76.1877 39.2604 75.4012 37.0052 74.3491 34.7448C74.0314 36.2708 73.5731 37.7917 73.4325 39.3385C73.2866 40.9583 72.7241 42.4479 72.3804 44C72.1877 44.849 71.8752 45.6667 72.2762 46.599C72.5106 47.1458 72.1408 47.8021 71.8647 48.3698C71.4012 49.3281 70.9481 50.2917 70.4897 51.2552C70.1981 51.8802 69.8543 52.4583 69.0731 52.5104C68.2866 52.5625 67.9064 52.026 67.5054 51.4583C65.7554 48.974 65.3804 46.0208 64.6668 43.1875C64.4689 42.4115 64.2033 41.6667 63.9064 40.9219C63.5627 40.0677 63.0627 40.0885 62.4481 40.4323C59.8543 41.8906 57.271 43.375 54.6929 44.8594C53.87 45.3333 53.6929 46.0208 53.9741 46.9115C54.9116 49.8437 55.5731 52.8281 55.8491 55.901C56.0522 58.0885 55.8127 60.1771 54.8075 62.1302C54.0939 63.526 52.9429 63.5365 52.0835 62.1458C54.3387 61.1615 53.7658 58.9844 53.8127 57.2969C53.9064 54.0417 53.0887 50.8698 52.0002 47.7812C51.6043 46.6667 51.0418 46.5208 50.0418 47.1823ZM38.521 46.1771C38.3335 48.1354 37.7345 50.0521 37.7918 52.2396C41.9533 49.9687 45.9585 47.8073 49.9429 45.6042C50.6564 45.2083 50.9897 44.6042 50.5887 43.7083C50.1981 42.8177 49.9845 41.849 49.6356 40.9427C47.6877 35.8854 45.4585 30.9427 43.8543 25.75C43.4272 24.3698 42.9377 22.9479 41.7658 21.5208C40.7345 29.8698 39.8439 37.9323 38.521 46.1771Z" fill="#868686"/>
</g>
<path d="M191.875 26.5372C192.245 26.2351 192.542 25.9851 193.021 25.5892C189.984 25.8028 187.391 26.8236 184.797 27.7872C178.839 30.0007 173.125 32.7872 167.411 35.558C161.651 38.3497 155.927 41.2194 150.187 44.0528C148.276 44.9955 146.266 45.7872 144.474 46.9174C142.354 48.2507 139.844 48.8705 137.99 50.6934C137.135 51.5319 135.953 51.9747 134.719 52.0788C134.094 52.1309 133.422 52.1101 133.292 51.2559C133.182 50.5111 133.38 49.8913 134.177 49.6882C138.719 48.5424 142.526 45.7976 146.729 43.9122C152.776 41.209 158.703 38.2351 164.682 35.3861C169.786 32.959 174.859 30.4799 180.089 28.3288C185.109 26.2663 190.177 24.3497 195.568 23.4486C196.693 23.2611 197.568 22.5059 198.474 21.8601C203.62 18.1934 208.833 14.6257 214.417 11.6569C216.802 10.3913 219.37 9.44861 221.865 8.39653C222.427 8.15694 223.052 8.18298 223.349 8.85486C223.635 9.50069 223.437 10.0372 222.714 10.183C220.682 10.584 220.458 12.1517 220.297 13.7924C220.224 14.5424 220.12 15.2924 219.979 16.0372C219.896 16.459 219.802 16.9955 219.219 16.9694C218.641 16.9434 218.573 16.4226 218.562 15.9747C218.531 15.084 218.5 14.1934 218.547 13.3028C218.604 12.1778 218.156 12.0424 217.167 12.3549C215.604 12.8392 214.281 13.7351 212.922 14.5736C209.526 16.6726 205.974 18.5267 202.797 20.9694C202.62 21.1049 202.427 21.2194 202.271 21.3757C201.797 21.8601 200.932 21.9069 200.687 22.5476C200.38 23.3653 201.406 23.5476 201.677 24.1205C202.125 25.0632 201.682 25.7611 201.057 26.3809C199.302 28.1257 197.208 29.4069 195.042 30.5476C190.865 32.7351 186.641 34.8236 182.464 37.0111C181.125 37.709 179.885 38.5944 178.583 39.3653C178.12 39.6413 177.568 39.9069 177.146 39.3444C176.729 38.7767 177.104 38.3132 177.542 37.9747C180.984 35.308 184.052 32.183 187.677 29.7559C189.125 28.7872 190.448 27.6726 191.875 26.5372ZM188.479 31.2455C188.172 31.6049 187.682 31.8184 187.521 32.709C191.807 30.3497 196.125 28.5267 199.547 24.8861C197.417 24.183 196.255 25.6101 195.026 26.3705C192.771 27.7611 190.74 29.5163 188.479 31.2455Z" fill="#868686"/>
<path d="M100.865 9.61466C101.328 9.65111 101.714 9.61986 101.865 10.0834C101.511 10.724 100.854 10.5157 100.323 10.5417C94.7554 10.823 89.2606 11.5053 83.9116 13.1928C82.3804 13.6772 81.1721 14.6511 79.8596 15.4636C78.9794 16.0157 78.9429 17.8907 79.7554 18.7032C81.4533 20.4011 83.2137 22.0053 85.4429 23.0365C87.1512 23.8282 88.896 24.6511 90.021 26.3907C90.0419 26.7397 89.6773 27.0938 89.4169 27.0626C87.0419 26.7917 84.2606 27.6719 82.9012 24.5469C82.3544 23.2917 80.7971 22.8438 79.9221 21.7969C78.9637 20.6459 77.8648 19.599 77.2866 18.1615C76.4429 16.0782 76.6981 15.1251 78.5419 13.849C81.3596 11.8959 84.6512 11.2605 87.8752 10.4063C92.12 9.28653 96.4481 9.66674 100.865 9.61466Z" fill="#868686"/>
<path d="M231.484 25.6199C231.391 25.8439 231.292 26.0314 231.151 26.0783C228.38 26.9845 225.609 27.8856 222.833 28.7553C222.552 28.8439 222.214 28.8074 221.917 28.7553C221.453 28.6772 221.042 28.4741 221.089 27.9064C221.125 27.422 221.37 27.1043 221.896 27.0001C224.188 26.5678 226.396 25.7762 228.724 25.5001C229.641 25.3908 230.552 25.1772 231.484 25.6199Z" fill="#868686"/>
<mask id="mask2_32_31" style="mask-type:luminance" maskUnits="userSpaceOnUse" x="234" y="18" width="9" height="8">
<path d="M234.667 18.667H242.526V25.3337H234.667V18.667Z" fill="white"/>
</mask>
<g mask="url(#mask2_32_31)">
<path d="M240.099 19.8748C240.385 19.8384 240.563 19.8019 240.74 19.8071C241.318 19.8228 242.052 19.8019 242.172 20.4686C242.328 21.3071 241.443 21.1926 240.969 21.354C239.344 21.9217 237.63 22.3071 236.766 24.0676C236.604 24.3957 236.203 24.4946 235.828 24.4009C235.375 24.2811 235.417 23.8905 235.406 23.5363C235.359 22.3019 236.255 21.1717 237.839 20.5623C238.537 20.2915 239.276 20.1196 240.099 19.8748Z" fill="#868686"/>
</g>
</g>
</svg>
