<svg width="360" height="360" viewBox="0 0 360 360" fill="none" xmlns="http://www.w3.org/2000/svg">
<path d="M278.028 162.418C277.485 161.987 272.421 158.164 261.743 158.164C258.923 158.176 256.109 158.418 253.329 158.887C251.262 144.721 239.55 137.814 239.025 137.504L236.157 135.851L234.271 138.572C231.909 142.228 230.185 146.258 229.173 150.491C227.261 158.577 228.424 166.173 232.531 172.666C227.571 175.43 219.614 176.111 218.004 176.171H86.2605C82.8194 176.176 80.0272 178.957 80.0084 182.397C79.8547 193.939 81.8101 205.411 85.7783 216.25C90.3166 228.152 97.0683 236.919 105.852 242.284C115.696 248.312 131.688 251.757 149.815 251.757C158.005 251.782 166.179 251.041 174.23 249.543C185.422 247.488 196.192 243.577 206.094 237.969C214.252 233.244 221.595 227.234 227.838 220.168C238.276 208.353 244.494 195.194 249.118 183.5H250.961C262.389 183.5 269.416 178.927 273.291 175.095C275.867 172.65 277.877 169.673 279.182 166.371L280 163.977L278.028 162.418Z" fill="#2496ED"/>
<path d="M98.4721 172.314H116.126C116.978 172.314 117.668 171.624 117.668 170.772V155.047C117.672 154.196 116.986 153.502 116.135 153.497C116.132 153.497 116.129 153.497 116.126 153.497H98.4721C97.6206 153.497 96.9307 154.187 96.9307 155.038V155.047V170.772C96.9307 171.624 97.6206 172.314 98.4721 172.314Z" fill="#2496ED"/>
<path d="M122.8 172.314H140.454C141.306 172.314 141.996 171.624 141.996 170.772V155.047C142.001 154.196 141.314 153.502 140.463 153.497C140.46 153.497 140.457 153.497 140.454 153.497H122.8C121.944 153.497 121.25 154.191 121.25 155.047V170.772C121.255 171.625 121.948 172.314 122.8 172.314Z" fill="#2496ED"/>
<path d="M147.499 172.314H165.153C166.004 172.314 166.694 171.624 166.694 170.772V155.047C166.699 154.196 166.013 153.502 165.161 153.497C165.158 153.497 165.155 153.497 165.153 153.497H147.498C146.647 153.497 145.957 154.187 145.957 155.038V155.047V170.772C145.957 171.624 146.648 172.314 147.499 172.314Z" fill="#2496ED"/>
<path d="M171.905 172.314H189.559C190.412 172.314 191.104 171.625 191.109 170.772V155.047C191.109 154.191 190.415 153.497 189.559 153.497H171.905C171.053 153.497 170.363 154.187 170.363 155.038V155.047V170.772C170.363 171.624 171.054 172.314 171.905 172.314Z" fill="#2496ED"/>
<path d="M122.8 149.691H140.454C141.307 149.686 141.996 148.993 141.996 148.14V132.415C141.996 131.564 141.305 130.874 140.454 130.874H122.8C121.948 130.874 121.255 131.563 121.25 132.415V148.14C121.255 148.995 121.946 149.686 122.8 149.691Z" fill="#2496ED"/>
<path d="M147.498 149.691H165.153C166.005 149.686 166.694 148.993 166.694 148.14V132.415C166.694 131.564 166.004 130.874 165.153 130.874H147.498C146.647 130.874 145.957 131.564 145.957 132.415V148.14C145.957 148.993 146.646 149.686 147.498 149.691Z" fill="#2496ED"/>
<path d="M171.905 149.691H189.559C190.413 149.686 191.104 148.995 191.109 148.14V132.415C191.104 131.563 190.412 130.874 189.559 130.874H171.905C171.053 130.874 170.363 131.564 170.363 132.415V148.14C170.363 148.993 171.052 149.686 171.905 149.691Z" fill="#2496ED"/>
<path d="M171.905 127.059H189.559C190.412 127.059 191.104 126.37 191.109 125.518V109.784C191.104 108.931 190.412 108.242 189.559 108.242H171.905C171.053 108.242 170.363 108.932 170.363 109.784V125.517C170.363 126.369 171.054 127.059 171.905 127.059Z" fill="#2496ED"/>
<path d="M196.526 172.314H214.18C215.033 172.314 215.725 171.625 215.73 170.772V155.047C215.73 154.191 215.036 153.497 214.18 153.497H196.526C195.675 153.497 194.984 154.187 194.984 155.038V155.047V170.772C194.984 171.624 195.675 172.314 196.526 172.314Z" fill="#2496ED"/>
</svg>
