<svg width="360" height="360" viewBox="0 0 360 360" fill="none" xmlns="http://www.w3.org/2000/svg">
<path d="M276.228 171.089L188.906 83.7717C183.88 78.7428 175.724 78.7428 170.692 83.7717L152.559 101.904L175.562 124.907C180.907 123.101 187.037 124.312 191.298 128.573C195.579 132.862 196.782 139.044 194.932 144.406L217.1 166.575C222.463 164.727 228.652 165.922 232.935 170.213C238.922 176.197 238.922 185.897 232.935 191.885C226.947 197.874 217.248 197.874 211.256 191.885C206.753 187.377 205.641 180.764 207.92 175.216L187.247 154.543L187.245 208.947C188.743 209.688 190.112 210.666 191.298 211.845C197.284 217.829 197.284 227.529 191.298 233.522C185.309 239.508 175.605 239.508 169.626 233.522C163.639 227.529 163.639 217.83 169.626 211.846C171.06 210.41 172.765 209.274 174.642 208.501V153.59C172.763 152.823 171.057 151.686 169.626 150.246C165.09 145.716 163.999 139.061 166.323 133.491L143.648 110.814L83.7734 170.685C78.7422 175.719 78.7422 183.876 83.7734 188.905L171.097 276.224C176.124 281.254 184.279 281.254 189.312 276.224L276.227 189.311C281.257 184.279 281.257 176.118 276.227 171.089" fill="#DE4C36"/>
</svg>
