<svg width="361" height="362" viewBox="0 0 361 362" fill="none" xmlns="http://www.w3.org/2000/svg">
<path d="M263.504 126.551C262.36 122.892 259.616 119.918 256.185 118.089L186.429 84.6973C184.599 83.7824 182.541 83.5537 180.711 83.5537C178.882 83.5537 176.823 83.5537 174.993 84.0111L105.237 117.631C101.807 119.232 99.2908 122.206 98.376 126.094L81.2228 201.339C80.5367 205.227 81.4516 209.115 83.7386 212.317L131.996 272.01C134.741 274.754 138.629 276.584 142.517 276.813H219.363C223.48 277.27 227.368 275.44 229.884 272.01L278.141 212.317C280.428 209.115 281.343 205.227 280.886 201.339L263.504 126.551Z" fill="white" stroke="white" stroke-width="10" stroke-miterlimit="10"/>
<path d="M263.504 126.551C262.36 122.892 259.616 119.918 256.185 118.089L186.429 84.6973C184.599 83.7824 182.541 83.5537 180.711 83.5537C178.882 83.5537 176.823 83.5537 174.993 84.0111L105.237 117.631C101.807 119.232 99.2908 122.206 98.376 126.094L81.2228 201.339C80.5367 205.227 81.4516 209.115 83.7386 212.317L131.996 272.01C134.741 274.754 138.629 276.584 142.517 276.813H219.363C223.48 277.27 227.368 275.44 229.884 272.01L278.141 212.317C280.428 209.115 281.343 205.227 280.886 201.339L263.504 126.551Z" fill="#326DE6"/>
<path d="M252.755 198.365C252.527 198.365 252.298 198.365 252.298 198.137C252.298 197.908 251.841 197.908 251.383 197.908C250.468 197.679 249.554 197.679 248.639 197.679C248.181 197.679 247.724 197.679 247.266 197.45H247.038C244.522 197.222 241.777 196.764 239.262 196.078C238.575 195.849 237.889 195.163 237.661 194.477L235.831 194.02C236.746 187.387 236.288 180.526 234.916 173.893C233.315 167.261 230.571 160.857 226.911 155.139L228.284 153.767V153.538C228.284 152.852 228.512 151.937 228.97 151.48C231.028 149.65 233.086 148.278 235.374 146.906C235.831 146.677 236.288 146.448 236.746 146.22C237.661 145.762 238.347 145.305 239.262 144.847C239.49 144.619 239.719 144.619 239.948 144.39C240.176 144.161 239.948 144.161 239.948 143.933C242.006 142.332 242.464 139.587 240.863 137.529C240.176 136.614 238.804 135.928 237.661 135.928C236.517 135.928 235.374 136.385 234.459 137.071L234.23 137.3C234.001 137.529 233.773 137.757 233.544 137.757C232.858 138.444 232.172 139.13 231.714 139.816C231.486 140.273 231.028 140.502 230.799 140.731C229.198 142.56 227.14 144.39 225.082 145.762C224.624 145.991 224.167 146.22 223.709 146.22C223.481 146.22 223.023 146.22 222.795 145.991H222.566L220.736 147.134C218.907 145.305 216.848 143.475 215.018 141.645C206.556 135.013 196.036 130.896 185.286 129.753L185.058 127.923V128.152C184.371 127.694 184.143 127.008 183.914 126.322C183.914 123.806 183.914 121.29 184.371 118.546V118.317C184.371 117.86 184.6 117.402 184.6 116.945C184.829 116.03 184.829 115.115 185.058 114.2V112.828C185.286 110.541 183.457 108.254 181.17 108.025C179.797 107.797 178.425 108.483 177.282 109.626C176.367 110.541 175.909 111.685 175.909 112.828V113.972C175.909 114.887 176.138 115.801 176.367 116.716C176.595 117.174 176.595 117.631 176.595 118.088V118.317C177.053 120.833 177.053 123.349 177.053 126.093C176.824 126.779 176.595 127.466 175.909 127.923V128.38L175.681 130.21C173.165 130.439 170.649 130.896 167.904 131.354C157.155 133.641 147.321 139.358 139.773 147.363L138.401 146.448H138.172C137.944 146.448 137.715 146.677 137.257 146.677C136.8 146.677 136.343 146.448 135.885 146.22C133.827 144.619 131.768 142.789 130.167 140.959C129.939 140.502 129.481 140.273 129.253 140.045C128.567 139.358 128.109 138.672 127.423 137.986C127.194 137.757 126.966 137.757 126.737 137.529C126.508 137.3 126.508 137.3 126.508 137.3C125.593 136.614 124.45 136.156 123.306 136.156C121.934 136.156 120.79 136.614 120.104 137.757C118.732 139.816 119.189 142.56 121.019 144.161C121.248 144.161 121.248 144.39 121.248 144.39C121.248 144.39 121.705 144.847 121.934 144.847C122.62 145.305 123.535 145.762 124.45 146.22C124.907 146.448 125.365 146.677 125.822 146.906C128.109 148.278 130.396 149.65 132.226 151.48C132.683 151.937 133.141 152.852 132.912 153.538V153.31L134.284 154.682C134.056 155.139 133.827 155.368 133.598 155.825C126.508 167.032 123.535 180.297 125.593 193.334L123.764 193.791C123.764 194.02 123.535 194.02 123.535 194.02C123.306 194.706 122.62 195.163 121.934 195.621C119.418 196.307 116.902 196.764 114.158 196.993C113.7 196.993 113.243 196.993 112.786 197.222C111.871 197.222 110.956 197.45 110.041 197.45C109.812 197.45 109.584 197.679 109.126 197.679C108.898 197.679 108.898 197.679 108.669 197.908C106.153 198.365 104.552 200.652 105.01 203.168C105.467 205.227 107.525 206.599 109.584 206.37C110.041 206.37 110.27 206.37 110.727 206.141C110.956 206.141 110.956 206.141 110.956 205.913C110.956 205.684 111.642 205.913 111.871 205.913C112.786 205.684 113.7 205.227 114.387 204.998C114.844 204.769 115.301 204.54 115.759 204.54H115.988C118.503 203.626 120.79 202.939 123.535 202.482H123.764C124.45 202.482 125.136 202.711 125.593 203.168C125.822 203.168 125.822 203.397 125.822 203.397L127.88 203.168C131.311 213.689 137.715 223.066 146.635 229.927C148.693 231.528 150.523 232.9 152.81 234.044L151.666 235.645C151.666 235.873 151.895 235.873 151.895 235.873C152.352 236.56 152.352 237.474 152.124 238.161C151.209 240.448 149.836 242.735 148.464 244.793V245.022C148.235 245.479 148.007 245.708 147.549 246.165C147.092 246.623 146.635 247.538 145.948 248.452C145.72 248.681 145.72 248.91 145.491 249.139C145.491 249.139 145.491 249.367 145.262 249.367C144.119 251.654 145.034 254.399 147.092 255.542C147.549 255.771 148.235 256 148.693 256C150.523 256 152.124 254.856 153.038 253.255C153.038 253.255 153.038 253.027 153.267 253.027C153.267 252.798 153.496 252.569 153.725 252.341C153.953 251.426 154.411 250.74 154.639 249.825L155.097 248.452C155.783 245.937 156.926 243.65 158.07 241.363C158.527 240.676 159.214 240.219 159.9 239.99C160.128 239.99 160.128 239.99 160.128 239.762L161.043 237.932C167.447 240.448 174.08 241.591 180.941 241.591C185.058 241.591 189.174 241.134 193.291 239.99C195.807 239.533 198.323 238.618 200.61 237.932L201.525 239.533C201.753 239.533 201.753 239.533 201.753 239.762C202.439 239.99 203.126 240.448 203.583 241.134C204.727 243.421 205.87 245.708 206.556 248.224V248.452L207.014 249.825C207.242 250.74 207.471 251.654 207.928 252.341C208.157 252.569 208.157 252.798 208.386 253.027C208.386 253.027 208.386 253.255 208.615 253.255C209.529 254.856 211.13 256 212.96 256C213.646 256 214.104 255.771 214.79 255.542C215.705 255.085 216.619 254.17 216.848 253.027C217.077 251.883 217.077 250.74 216.619 249.596C216.619 249.367 216.391 249.367 216.391 249.367C216.391 249.139 216.162 248.91 215.933 248.681C215.476 247.766 215.018 247.08 214.332 246.394C214.104 245.937 213.875 245.708 213.418 245.251V244.793C211.817 242.735 210.673 240.448 209.758 238.161C209.529 237.474 209.529 236.56 209.987 235.873C209.987 235.645 210.216 235.645 210.216 235.645L209.529 233.815C221.194 226.725 230.113 215.747 234.23 202.711L236.06 202.939C236.288 202.939 236.288 202.711 236.288 202.711C236.746 202.253 237.432 202.025 238.118 202.025H238.347C240.863 202.482 243.378 203.168 245.665 204.083H245.894C246.352 204.312 246.809 204.54 247.266 204.54C248.181 204.998 248.867 205.455 249.782 205.684C250.011 205.684 250.24 205.913 250.697 205.913C250.926 205.913 250.926 205.913 251.154 206.141C251.612 206.37 251.841 206.37 252.298 206.37C254.356 206.37 256.186 204.998 256.872 203.168C256.643 200.652 254.814 198.823 252.755 198.365ZM186.659 191.275L180.483 194.248L174.308 191.275L172.707 184.643L177.053 179.154H183.914L188.26 184.643L186.659 191.275ZM223.938 176.409C225.082 181.212 225.31 186.015 224.853 190.818L203.126 184.643C201.067 184.185 199.924 182.127 200.381 180.069C200.61 179.382 200.839 178.925 201.296 178.468L218.449 162.915C220.965 167.032 222.795 171.606 223.938 176.409ZM211.588 154.453L192.834 167.718C191.233 168.633 188.946 168.404 187.802 166.803C187.345 166.346 187.116 165.889 187.116 165.202L185.744 142.103C195.807 143.246 204.727 147.592 211.588 154.453ZM170.192 142.789L174.766 141.874L173.622 164.745C173.622 166.803 171.792 168.404 169.734 168.404C169.048 168.404 168.591 168.176 167.904 167.947L148.922 154.453C154.868 148.735 162.187 144.619 170.192 142.789ZM142.289 162.915L159.214 178.01C160.814 179.382 161.043 181.67 159.671 183.27C159.214 183.957 158.756 184.185 157.841 184.414L135.657 190.818C134.97 181.212 137.257 171.378 142.289 162.915ZM138.401 201.567L161.043 197.679C162.873 197.679 164.703 198.823 164.931 200.652C165.16 201.338 165.16 202.253 164.703 202.939L156.012 223.981C148.007 218.72 141.603 210.716 138.401 201.567ZM190.318 229.927C187.116 230.613 183.914 231.071 180.483 231.071C175.681 231.071 170.649 230.156 166.075 228.784L177.282 208.428C178.425 207.056 180.255 206.599 181.856 207.514C182.542 207.971 182.999 208.428 183.685 209.115L194.663 229.012C193.291 229.241 191.919 229.47 190.318 229.927ZM218.22 210.029C214.79 215.518 209.987 220.321 204.498 223.752L195.578 202.253C195.121 200.424 196.036 198.594 197.637 197.908C198.323 197.679 199.009 197.45 199.695 197.45L222.566 201.338C221.422 204.54 220.05 207.514 218.22 210.029Z" fill="white"/>
</svg>
