<svg width="361" height="361" viewBox="0 0 361 361" fill="none" xmlns="http://www.w3.org/2000/svg">
<path d="M81.9019 151.066C81.9019 151.066 77.0306 147.555 82.8761 142.866L96.4953 130.688C96.4953 130.688 100.392 126.588 104.513 130.16L230.191 225.312V270.94C230.191 270.94 230.13 278.104 220.935 277.313L81.9019 151.066Z" fill="#2489CA"/>
<path d="M114.296 180.477L81.9023 209.928C81.9023 209.928 78.5736 212.404 81.9023 216.829L96.9423 230.509C96.9423 230.509 100.515 234.345 105.792 229.981L140.134 203.94L114.296 180.477Z" fill="#1070B3"/>
<path d="M171.168 180.72L230.577 135.357L230.191 89.9728C230.191 89.9728 227.654 80.0679 219.19 85.2233L140.134 157.176L171.168 180.72Z" fill="#0877B9"/>
<path d="M220.936 277.374C224.386 280.906 228.568 279.749 228.568 279.749L274.865 256.935C280.791 252.896 279.959 247.883 279.959 247.883V111.65C279.959 105.662 273.83 103.592 273.83 103.592L233.703 84.2489C224.934 78.8296 219.19 85.2232 219.19 85.2232C219.19 85.2232 226.578 79.9054 230.191 89.9726V270.108C230.191 271.346 229.927 272.564 229.4 273.66C228.344 275.791 226.051 277.78 220.55 276.948L220.936 277.374Z" fill="#3C99D4"/>
</svg>
