<svg width="360" height="360" viewBox="0 0 360 360" fill="none" xmlns="http://www.w3.org/2000/svg">
<path d="M153.754 234.671C153.754 234.671 146.111 239.116 159.193 240.619C175.041 242.427 183.141 242.168 200.606 238.863C200.606 238.863 205.198 241.742 211.61 244.236C172.459 261.015 123.001 243.263 153.754 234.671ZM148.969 212.774C148.969 212.774 140.397 219.12 153.489 220.474C170.419 222.22 183.788 222.363 206.923 217.908C206.923 217.908 210.123 221.152 215.155 222.927C167.817 236.769 115.092 224.018 148.969 212.774Z" fill="#5D829F"/>
<path d="M189.302 175.63C198.949 186.737 186.767 196.732 186.767 196.732C186.767 196.732 211.262 184.087 200.013 168.251C189.506 153.485 181.448 146.147 225.068 120.85C225.068 120.85 156.6 137.95 189.302 175.63" fill="#E76F00"/>
<path d="M241.083 250.868C241.083 250.868 246.739 255.528 234.854 259.133C212.255 265.98 140.794 268.047 120.943 259.406C113.807 256.302 127.189 251.994 131.398 251.089C135.788 250.137 138.297 250.315 138.297 250.315C130.361 244.724 87.0016 261.293 116.273 266.037C196.1 278.983 261.789 260.208 241.083 250.868ZM157.428 190.087C157.428 190.087 121.079 198.721 144.557 201.856C154.469 203.183 174.23 202.883 192.637 201.341C207.68 200.072 222.785 197.374 222.785 197.374C222.785 197.374 217.481 199.646 213.643 202.266C176.731 211.974 105.423 207.458 125.952 197.527C143.313 189.135 157.429 190.087 157.429 190.087H157.428ZM222.635 226.535C260.159 207.037 242.809 188.299 230.7 190.824C227.731 191.441 226.408 191.976 226.408 191.976C226.408 191.976 227.51 190.251 229.615 189.504C253.571 181.081 271.995 214.344 221.881 227.518C221.881 227.519 222.462 227 222.635 226.535" fill="#5D829F"/>
<path d="M200.013 80.0006C200.013 80.0006 220.794 100.789 180.303 132.754C147.834 158.397 172.899 173.017 180.29 189.722C161.337 172.622 147.428 157.568 156.759 143.558C170.455 122.991 208.397 113.02 200.013 80" fill="#E76F00"/>
<path d="M161.115 279.37C197.133 281.676 252.442 278.091 253.752 261.049C253.752 261.049 251.234 267.51 223.985 272.641C193.243 278.425 155.328 277.75 132.84 274.042C132.84 274.042 137.443 277.853 161.116 279.37" fill="#5D829F"/>
</svg>
