<svg width="360" height="360" viewBox="0 0 360 360" fill="none" xmlns="http://www.w3.org/2000/svg">
<path d="M280 80H80V280H280V80Z" fill="#F7DF1E"/>
<path d="M214.348 236.251C218.377 242.829 223.618 247.664 232.888 247.664C240.675 247.664 245.65 243.771 245.65 238.394C245.65 231.949 240.539 229.667 231.967 225.918L227.269 223.902C213.707 218.124 204.697 210.886 204.697 195.584C204.697 181.489 215.437 170.759 232.221 170.759C244.17 170.759 252.761 174.918 258.951 185.806L244.316 195.203C241.094 189.425 237.618 187.149 232.221 187.149C226.716 187.149 223.227 190.641 223.227 195.203C223.227 200.841 226.719 203.124 234.783 206.616L239.481 208.629C255.45 215.476 264.466 222.457 264.466 238.152C264.466 255.073 251.173 264.343 233.323 264.343C215.869 264.343 204.593 256.025 199.075 245.124L214.348 236.251ZM147.958 237.879C150.91 243.118 153.596 247.546 160.053 247.546C166.227 247.546 170.123 245.13 170.123 235.737V171.832H188.916V235.991C188.916 255.451 177.507 264.308 160.853 264.308C145.805 264.308 137.091 256.521 132.659 247.141L147.958 237.879Z" fill="black"/>
</svg>
