<svg width="360" height="360" viewBox="0 0 360 360" fill="none" xmlns="http://www.w3.org/2000/svg">
<path d="M264.221 234.491C253.339 234.216 244.905 235.32 237.832 238.358C235.791 239.185 232.526 239.186 232.254 241.81C233.343 242.915 233.479 244.71 234.431 246.228C236.065 248.989 238.92 252.718 241.504 254.652C244.36 256.86 247.218 259.069 250.209 261.002C255.515 264.316 261.501 266.249 266.67 269.563C269.663 271.495 272.654 273.982 275.647 276.053C277.143 277.156 278.095 278.953 280 279.642V279.229C279.047 277.985 278.775 276.191 277.823 274.81C276.465 273.429 275.103 272.186 273.742 270.805C269.798 265.421 264.901 260.726 259.596 256.86C255.244 253.822 245.721 249.68 243.953 244.571C243.953 244.571 243.816 244.434 243.681 244.296C246.673 244.019 250.209 242.915 253.067 242.086C257.692 240.842 261.908 241.119 266.67 239.877C268.845 239.324 271.022 238.634 273.198 237.943V236.701C270.751 234.216 268.982 230.902 266.397 228.555C259.46 222.478 251.842 216.541 243.953 211.571C239.736 208.809 234.294 207.014 229.806 204.667C228.175 203.838 225.453 203.424 224.502 202.043C222.052 199.006 220.692 195.002 218.924 191.412C214.98 183.817 211.17 175.395 207.769 167.387C205.322 162.002 203.826 156.616 200.833 151.646C186.822 128.173 171.587 113.951 148.191 100.005C143.158 97.1055 137.173 95.8627 130.78 94.3445C127.38 94.2056 123.978 93.9302 120.578 93.7913C118.402 92.8247 116.225 90.2017 114.32 88.9589C106.568 83.9876 86.5711 73.2188 80.8582 87.4407C77.1851 96.4151 86.2998 105.251 89.4272 109.809C91.7414 112.985 94.7328 116.574 96.3653 120.164C97.3175 122.51 97.5889 124.998 98.5411 127.483C100.719 133.556 102.758 140.324 105.615 145.985C107.112 148.884 108.743 151.922 110.648 154.545C111.736 156.064 113.64 156.755 114.049 159.24C112.145 162.002 112.008 166.144 110.919 169.596C106.023 185.199 107.928 204.529 114.864 215.989C117.04 219.44 122.21 227.036 129.147 224.136C135.269 221.651 133.909 213.78 135.676 206.877C136.085 205.218 135.813 204.115 136.629 203.01V203.287C138.533 207.152 140.437 210.881 142.206 214.747C146.423 221.512 153.767 228.555 159.888 233.25C163.154 235.734 165.738 240.015 169.819 241.534V241.119H169.547C168.73 239.876 167.506 239.324 166.418 238.357C163.97 235.873 161.249 232.835 159.345 230.073C153.633 222.34 148.599 213.78 144.11 204.943C141.934 200.663 140.029 195.968 138.261 191.688C137.444 190.029 137.444 187.545 136.084 186.718C134.044 189.755 131.052 192.379 129.555 196.106C126.972 202.043 126.699 209.361 125.747 216.955C125.203 217.095 125.474 216.955 125.202 217.233C120.85 216.126 119.354 211.571 117.721 207.704C113.639 197.901 112.959 182.161 116.497 170.839C117.449 167.939 121.53 158.826 119.898 156.064C119.082 153.441 116.36 151.922 114.864 149.851C113.097 147.227 111.191 143.915 109.968 141.014C106.703 133.282 105.07 124.721 101.534 116.988C99.9015 113.398 97.0462 109.671 94.7328 106.357C92.1488 102.629 89.2919 100.005 87.2513 95.5865C86.5719 94.0683 85.6188 91.5827 86.7071 89.9256C86.9792 88.8208 87.5226 88.4073 88.6117 88.1312C90.3803 86.6114 95.4138 88.5446 97.1807 89.3732C102.214 91.443 106.431 93.3779 110.648 96.277C112.552 97.6579 114.592 100.282 117.04 100.972H119.897C124.25 101.938 129.146 101.248 133.228 102.49C140.438 104.837 146.966 108.289 152.816 112.018C170.636 123.478 185.325 139.771 195.256 159.24C196.888 162.414 197.568 165.316 199.064 168.628C201.922 175.395 205.458 182.299 208.314 188.926C211.17 195.415 213.89 202.043 217.972 207.429C220.012 210.327 228.173 211.847 231.846 213.366C234.567 214.608 238.784 215.714 241.232 217.232C245.857 220.13 250.481 223.446 254.835 226.621C257.011 228.278 263.812 231.73 264.221 234.491Z" fill="#32738C"/>
<path d="M125.474 114.502C123.162 114.502 121.53 114.78 119.897 115.193V115.469H120.17C121.259 117.679 123.162 119.198 124.521 121.13C125.61 123.339 126.562 125.549 127.651 127.759C127.786 127.62 127.922 127.483 127.922 127.483C129.828 126.101 130.779 123.892 130.779 120.578C129.963 119.612 129.827 118.646 129.147 117.679C128.331 116.297 126.562 115.607 125.474 114.502Z" fill="#32738C"/>
</svg>
