<svg width="361" height="361" viewBox="0 0 361 361" fill="none" xmlns="http://www.w3.org/2000/svg">
<path d="M179.329 80.6025C128.557 80.6025 131.727 102.621 131.727 102.621L131.783 125.432H180.235V132.28H112.539C112.539 132.28 80.0498 128.596 80.0498 179.825C80.0498 231.055 108.407 229.239 108.407 229.239H125.331V205.466C125.331 205.466 124.419 177.108 153.236 177.108H201.291C201.291 177.108 228.29 177.544 228.29 151.015V107.149C228.29 107.149 232.39 80.6025 179.329 80.6025ZM152.613 95.9427C153.758 95.9416 154.892 96.1664 155.95 96.6041C157.008 97.0417 157.969 97.6837 158.779 98.4933C159.588 99.3029 160.23 100.264 160.668 101.322C161.106 102.38 161.331 103.514 161.33 104.659C161.331 105.804 161.106 106.938 160.668 107.996C160.23 109.054 159.588 110.015 158.779 110.825C157.969 111.634 157.008 112.276 155.95 112.714C154.892 113.152 153.758 113.376 152.613 113.375C151.468 113.376 150.334 113.152 149.276 112.714C148.218 112.276 147.257 111.634 146.448 110.825C145.638 110.015 144.996 109.054 144.558 107.996C144.121 106.938 143.896 105.804 143.897 104.659C143.896 103.514 144.121 102.38 144.558 101.322C144.996 100.264 145.638 99.3029 146.448 98.4933C147.257 97.6837 148.218 97.0417 149.276 96.6041C150.334 96.1664 151.468 95.9416 152.613 95.9427V95.9427Z" fill="url(#paint0_linear_301_8808)"/>
<path d="M180.771 279.563C231.543 279.563 228.373 257.545 228.373 257.545L228.317 234.734H179.865V227.886H247.56C247.56 227.886 280.05 231.57 280.05 180.339C280.05 129.11 251.692 130.926 251.692 130.926H234.768V154.699C234.768 154.699 235.681 183.056 206.864 183.056H158.809C158.809 183.056 131.81 182.62 131.81 209.15V253.017C131.81 253.017 127.71 279.563 180.77 279.563H180.771ZM207.487 264.224C206.342 264.225 205.208 264 204.15 263.563C203.092 263.125 202.131 262.483 201.321 261.673C200.512 260.864 199.87 259.903 199.432 258.845C198.994 257.787 198.77 256.653 198.771 255.508C198.769 254.363 198.994 253.229 199.432 252.171C199.869 251.113 200.511 250.151 201.321 249.341C202.131 248.532 203.092 247.89 204.15 247.452C205.208 247.014 206.342 246.79 207.487 246.791C208.632 246.79 209.766 247.014 210.824 247.452C211.882 247.89 212.843 248.532 213.653 249.341C214.462 250.151 215.104 251.112 215.542 252.17C215.98 253.228 216.204 254.362 216.203 255.507C216.204 256.652 215.98 257.786 215.542 258.844C215.104 259.902 214.462 260.863 213.653 261.673C212.843 262.482 211.882 263.124 210.824 263.562C209.766 264 208.632 264.224 207.487 264.223V264.224Z" fill="url(#paint1_linear_301_8808)"/>
<defs>
<linearGradient id="paint0_linear_301_8808" x1="99.2697" y1="98.4978" x2="198.384" y2="196.623" gradientUnits="userSpaceOnUse">
<stop stop-color="#387EB8"/>
<stop offset="1" stop-color="#366994"/>
</linearGradient>
<linearGradient id="paint1_linear_301_8808" x1="160.106" y1="161.508" x2="266.543" y2="262.126" gradientUnits="userSpaceOnUse">
<stop stop-color="#FFE052"/>
<stop offset="1" stop-color="#FFC331"/>
</linearGradient>
</defs>
</svg>
