<svg width="361" height="360" viewBox="0 0 361 360" fill="none" xmlns="http://www.w3.org/2000/svg">
<path d="M80.7236 80H280.724V280H80.7236V80Z" fill="#017ACB"/>
<path d="M176.755 154.062H186.349V170.625H160.411V244.312L159.724 244.5C158.786 244.75 146.442 244.75 143.786 244.469L141.661 244.281V170.625H115.724V154.062L123.942 153.969C128.442 153.906 140.005 153.906 149.63 153.969C159.255 154.031 171.442 154.062 176.755 154.062ZM249.974 236.5C246.161 240.531 242.068 242.781 235.255 244.625C232.286 245.437 231.786 245.469 225.099 245.438C218.411 245.406 217.88 245.406 214.63 244.562C206.224 242.406 199.443 238.187 194.818 232.219C193.505 230.531 191.349 227.031 191.349 226.594C191.349 226.469 191.661 226.187 192.068 226C192.474 225.812 193.318 225.281 194.005 224.875C194.693 224.469 195.943 223.719 196.786 223.281C197.63 222.844 200.068 221.406 202.193 220.125C204.318 218.844 206.255 217.812 206.474 217.812C206.693 217.812 207.099 218.25 207.411 218.781C209.286 221.937 213.661 225.969 216.755 227.344C218.661 228.156 222.88 229.062 224.911 229.062C226.786 229.062 230.224 228.25 232.068 227.406C234.036 226.5 235.036 225.594 236.224 223.781C237.036 222.5 237.13 222.156 237.099 219.719C237.099 217.469 236.974 216.844 236.349 215.812C234.599 212.937 232.224 211.437 222.599 207.187C212.661 202.781 208.193 200.156 204.568 196.625C201.88 194 201.349 193.281 199.661 190C197.474 185.781 197.193 184.406 197.161 178.125C197.13 173.719 197.224 172.281 197.693 170.781C198.349 168.531 200.474 164.187 201.443 163.094C203.443 160.75 204.161 160.031 205.568 158.875C209.818 155.375 216.443 153.062 222.786 152.844C223.505 152.844 225.88 152.969 228.099 153.125C234.474 153.656 238.818 155.219 243.005 158.562C246.161 161.062 250.943 166.938 250.474 167.719C250.161 168.188 237.693 176.5 236.88 176.75C236.38 176.906 236.036 176.719 235.349 175.906C231.099 170.812 229.38 169.719 225.255 169.469C222.318 169.281 220.755 169.625 218.786 170.937C216.724 172.312 215.724 174.406 215.724 177.312C215.755 181.562 217.38 183.562 223.38 186.531C227.255 188.437 230.568 190 230.818 190C231.193 190 239.224 194 241.318 195.25C251.068 200.969 255.036 206.844 256.068 216.969C256.818 224.594 254.661 231.562 249.974 236.5Z" fill="white"/>
</svg>
