<svg width="360" height="360" viewBox="0 0 360 360" fill="none" xmlns="http://www.w3.org/2000/svg">
<path d="M136.362 163.636C136.362 166.098 136.628 168.093 137.094 169.557C137.626 171.02 138.291 172.616 139.222 174.346C139.555 174.878 139.688 175.41 139.688 175.876C139.688 176.541 139.289 177.206 138.424 177.871L134.233 180.665C133.635 181.064 133.036 181.264 132.504 181.264C131.839 181.264 131.174 180.931 130.508 180.332C129.577 179.335 128.779 178.27 128.114 177.206C127.449 176.075 126.783 174.811 126.052 173.282C120.863 179.401 114.345 182.461 106.495 182.461C100.908 182.461 96.4512 180.865 93.1919 177.672C89.9325 174.479 88.2695 170.222 88.2695 164.9C88.2695 159.246 90.2651 154.657 94.3227 151.198C98.3803 147.739 103.768 146.009 110.62 146.009C112.881 146.009 115.209 146.209 117.67 146.541C120.132 146.874 122.659 147.406 125.32 148.005V143.149C125.32 138.094 124.256 134.568 122.194 132.506C120.065 130.444 116.473 129.446 111.351 129.446C109.023 129.446 106.628 129.712 104.167 130.311C101.706 130.91 99.3115 131.641 96.9834 132.573C95.9191 133.038 95.1209 133.304 94.6553 133.437C94.1896 133.57 93.857 133.637 93.591 133.637C92.6597 133.637 92.1941 132.972 92.1941 131.575V128.315C92.1941 127.251 92.3271 126.453 92.6597 125.987C92.9923 125.522 93.591 125.056 94.5222 124.59C96.8503 123.393 99.6441 122.395 102.903 121.597C106.163 120.732 109.622 120.333 113.28 120.333C121.196 120.333 126.983 122.129 130.708 125.721C134.366 129.313 136.229 134.768 136.229 142.085V163.636H136.362ZM109.356 173.747C111.551 173.747 113.812 173.348 116.207 172.55C118.602 171.752 120.73 170.288 122.526 168.293C123.591 167.029 124.389 165.632 124.788 164.036C125.187 162.439 125.453 160.51 125.453 158.248V155.455C123.524 154.989 121.462 154.59 119.333 154.324C117.205 154.058 115.143 153.925 113.081 153.925C108.624 153.925 105.365 154.79 103.17 156.586C100.974 158.382 99.9102 160.909 99.9102 164.235C99.9102 167.361 100.708 169.69 102.371 171.286C103.968 172.949 106.296 173.747 109.356 173.747ZM162.77 180.931C161.572 180.931 160.774 180.732 160.242 180.266C159.71 179.867 159.244 178.936 158.845 177.672L143.213 126.253C142.814 124.923 142.615 124.058 142.615 123.593C142.615 122.528 143.147 121.93 144.211 121.93H150.73C151.994 121.93 152.858 122.129 153.324 122.595C153.856 122.994 154.255 123.925 154.654 125.189L165.829 169.224L176.206 125.189C176.539 123.859 176.938 122.994 177.47 122.595C178.002 122.196 178.933 121.93 180.131 121.93H185.452C186.716 121.93 187.581 122.129 188.113 122.595C188.645 122.994 189.111 123.925 189.377 125.189L199.887 169.756L211.394 125.189C211.793 123.859 212.259 122.994 212.725 122.595C213.257 122.196 214.121 121.93 215.319 121.93H221.505C222.569 121.93 223.168 122.462 223.168 123.593C223.168 123.925 223.101 124.258 223.035 124.657C222.968 125.056 222.835 125.588 222.569 126.32L206.538 177.738C206.139 179.069 205.674 179.933 205.142 180.332C204.609 180.732 203.745 180.998 202.614 180.998H196.893C195.629 180.998 194.765 180.798 194.233 180.332C193.7 179.867 193.235 179.002 192.969 177.672L182.659 134.768L172.415 177.605C172.082 178.936 171.683 179.8 171.151 180.266C170.619 180.732 169.688 180.931 168.49 180.931H162.77ZM248.245 182.727C244.786 182.727 241.327 182.328 238.001 181.53C234.676 180.732 232.081 179.867 230.352 178.869C229.288 178.27 228.556 177.605 228.29 177.007C228.024 176.408 227.891 175.743 227.891 175.144V171.752C227.891 170.355 228.423 169.69 229.421 169.69C229.82 169.69 230.219 169.756 230.618 169.889C231.017 170.022 231.616 170.288 232.281 170.554C234.542 171.552 237.004 172.35 239.598 172.882C242.259 173.415 244.853 173.681 247.514 173.681C251.704 173.681 254.964 172.949 257.225 171.486C259.487 170.022 260.684 167.894 260.684 165.166C260.684 163.304 260.085 161.774 258.888 160.51C257.691 159.246 255.429 158.115 252.17 157.051L242.525 154.058C237.669 152.528 234.077 150.266 231.882 147.273C229.687 144.346 228.556 141.087 228.556 137.628C228.556 134.834 229.155 132.373 230.352 130.244C231.549 128.116 233.146 126.253 235.141 124.79C237.137 123.26 239.398 122.129 242.059 121.331C244.72 120.533 247.513 120.2 250.44 120.2C251.904 120.2 253.434 120.267 254.897 120.466C256.427 120.666 257.824 120.932 259.221 121.198C260.551 121.531 261.815 121.863 263.012 122.262C264.209 122.661 265.141 123.06 265.806 123.46C266.737 123.992 267.402 124.524 267.801 125.123C268.201 125.655 268.4 126.386 268.4 127.318V130.444C268.4 131.841 267.868 132.573 266.87 132.573C266.338 132.573 265.473 132.306 264.343 131.774C260.551 130.045 256.294 129.18 251.571 129.18C247.78 129.18 244.786 129.779 242.724 131.043C240.662 132.306 239.598 134.235 239.598 136.963C239.598 138.825 240.263 140.422 241.593 141.686C242.924 142.949 245.385 144.213 248.91 145.344L258.356 148.337C263.145 149.867 266.604 151.996 268.666 154.723C270.728 157.45 271.726 160.577 271.726 164.036C271.726 166.896 271.127 169.49 269.997 171.752C268.799 174.013 267.203 176.009 265.141 177.605C263.079 179.268 260.618 180.465 257.757 181.33C254.764 182.261 251.638 182.727 248.245 182.727Z" fill="#272F3D"/>
<path fill-rule="evenodd" clip-rule="evenodd" d="M260.817 215.055C238.933 231.218 207.137 239.799 179.798 239.799C141.484 239.799 106.961 225.631 80.886 202.084C78.824 200.221 80.6865 197.693 83.1476 199.157C111.351 215.52 146.14 225.431 182.126 225.431C206.405 225.431 233.079 220.376 257.624 209.999C261.283 208.336 264.409 212.394 260.817 215.055Z" fill="#FF9900"/>
<path fill-rule="evenodd" clip-rule="evenodd" d="M269.93 204.678C267.136 201.086 251.438 202.949 244.32 203.813C242.192 204.079 241.859 202.217 243.788 200.82C256.294 192.04 276.848 194.567 279.242 197.494C281.637 200.487 278.577 221.041 266.87 230.886C265.074 232.416 263.344 231.618 264.143 229.622C266.803 223.037 272.723 208.204 269.93 204.678Z" fill="#FF9900"/>
</svg>
