<svg width="360" height="360" viewBox="0 0 360 360" fill="none" xmlns="http://www.w3.org/2000/svg">
<path d="M179.374 80.5459L184.711 90.5701C185.911 92.42 187.211 94.0574 188.742 95.5823C193.231 100.015 197.415 104.746 201.266 109.744C210.309 121.618 216.409 134.804 220.765 149.066C223.377 157.778 224.796 166.714 224.902 175.751C225.339 202.768 216.078 225.966 197.404 245.246C194.366 248.303 191.085 251.108 187.592 253.633C185.742 253.633 184.867 252.214 184.105 250.908C182.716 248.486 181.792 245.826 181.38 243.065C180.724 239.796 180.293 236.528 180.505 233.153V231.628C180.355 231.303 178.724 81.3146 179.374 80.5459Z" fill="#599636"/>
<path d="M179.374 80.215C179.155 79.7775 178.937 80.1088 178.718 80.3212C178.824 82.5086 178.062 84.4584 176.868 86.3208C175.556 88.1707 173.818 89.5893 172.075 91.1142C162.388 99.5011 154.763 109.632 148.658 120.962C140.533 136.211 136.346 152.553 135.158 169.758C134.615 175.964 137.121 197.863 139.077 204.181C144.414 220.955 154.001 235.01 166.419 247.209C169.468 250.146 172.731 252.871 176.106 255.49C177.087 255.49 177.193 254.615 177.418 253.965C177.848 252.574 178.176 251.154 178.399 249.715L180.586 233.379L179.374 80.215Z" fill="#6CAC48"/>
<path d="M184.711 260.27C184.93 257.77 186.13 255.695 187.436 253.627C186.124 253.083 185.149 252.002 184.386 250.796C183.729 249.654 183.184 248.45 182.761 247.202C181.236 242.628 180.911 237.828 180.474 233.153V230.322C179.93 230.76 179.818 234.459 179.818 235.009C179.5 239.95 178.844 244.863 177.855 249.714C177.53 251.677 177.312 253.633 176.105 255.377C176.105 255.595 176.105 255.814 176.212 256.139C178.174 261.914 178.712 267.794 179.043 273.788V275.975C179.043 278.587 178.937 278.037 181.105 278.912C181.98 279.237 182.955 279.35 183.83 280C184.486 280 184.592 279.456 184.592 279.018L184.267 275.425V265.401C184.161 263.651 184.486 261.914 184.705 260.276L184.711 260.27Z" fill="#C2BFBF"/>
</svg>
