<svg width="360" height="360" viewBox="0 0 360 360" fill="none" xmlns="http://www.w3.org/2000/svg">
<path d="M171.811 82.1337C176.77 79.2952 183.229 79.2824 188.184 82.1337C213.111 96.2189 238.046 110.282 262.969 124.376C267.657 127.016 270.792 132.233 270.745 137.635V222.376C270.78 228.001 267.334 233.343 262.389 235.924C237.543 249.931 212.711 263.956 187.87 277.963C182.808 280.857 176.219 280.634 171.316 277.503C163.867 273.185 156.406 268.889 148.957 264.575C147.434 263.667 145.718 262.945 144.644 261.469C145.594 260.188 147.293 260.029 148.673 259.47C151.782 258.481 154.638 256.894 157.494 255.354C158.217 254.86 159.098 255.049 159.791 255.491C166.16 259.143 172.473 262.902 178.864 266.519C180.228 267.306 181.608 266.261 182.773 265.611C207.154 251.832 231.565 238.104 255.941 224.32C256.845 223.886 257.344 222.927 257.271 221.938C257.288 193.983 257.275 166.024 257.279 138.069C257.382 136.946 256.733 135.914 255.718 135.455C230.959 121.511 206.212 107.547 181.458 93.5997C181.029 93.3049 180.521 93.1467 180 93.1459C179.48 93.1451 178.971 93.3019 178.541 93.5955C153.787 107.547 129.045 121.524 104.29 135.467C103.278 135.927 102.6 136.942 102.72 138.069C102.724 166.024 102.72 193.983 102.72 221.942C102.677 222.425 102.783 222.909 103.024 223.329C103.264 223.75 103.628 224.087 104.066 224.295C110.672 228.041 117.287 231.76 123.897 235.493C127.621 237.498 132.193 238.689 136.296 237.153C139.917 235.855 142.455 232.16 142.385 228.315C142.42 200.524 142.368 172.728 142.411 144.941C142.321 143.708 143.491 142.688 144.691 142.804C147.865 142.783 151.043 142.762 154.217 142.813C155.542 142.783 156.454 144.112 156.29 145.355C156.277 173.322 156.324 201.29 156.268 229.257C156.277 236.711 153.215 244.821 146.32 248.468C137.827 252.868 127.329 251.935 118.938 247.716C111.674 244.09 104.741 239.811 97.6063 235.927C92.648 233.361 89.2196 227.998 89.2545 222.377V137.635C89.2025 132.121 92.4628 126.81 97.2965 124.208C122.137 110.189 146.974 96.159 171.811 82.1337Z" fill="#8CC84B"/>
<path d="M193.482 140.835C204.316 140.137 215.915 140.422 225.664 145.759C233.212 149.849 237.397 158.433 237.53 166.819C237.32 167.95 236.137 168.574 235.057 168.497C231.914 168.492 228.77 168.539 225.626 168.475C224.293 168.526 223.518 167.297 223.351 166.118C222.447 162.106 220.259 158.132 216.483 156.196C210.685 153.294 203.963 153.44 197.641 153.5C193.026 153.745 188.064 154.145 184.154 156.859C181.152 158.915 180.24 163.064 181.312 166.407C182.322 168.806 185.092 169.581 187.358 170.294C200.415 173.709 214.251 173.369 227.058 177.863C232.361 179.695 237.548 183.257 239.363 188.809C241.737 196.249 240.696 205.143 235.402 211.117C231.109 216.032 224.856 218.708 218.62 220.161C210.324 222.011 201.714 222.058 193.289 221.236C185.367 220.333 177.123 218.252 171.007 212.854C165.777 208.313 163.223 201.238 163.476 194.409C163.537 193.256 164.685 192.451 165.79 192.546C168.955 192.521 172.121 192.512 175.286 192.55C176.551 192.46 177.488 193.553 177.553 194.744C178.137 198.567 179.574 202.58 182.907 204.846C189.341 208.997 197.413 208.713 204.78 208.829C210.883 208.558 217.734 208.476 222.714 204.442C225.342 202.142 226.121 198.292 225.411 194.981C224.641 192.185 221.717 190.882 219.205 190.03C206.316 185.953 192.325 187.433 179.561 182.822C174.379 180.99 169.368 177.528 167.377 172.204C164.599 164.669 165.872 155.349 171.72 149.578C177.423 143.836 185.655 141.625 193.482 140.834V140.835Z" fill="#8CC84B"/>
</svg>
