<svg width="360" height="360" viewBox="0 0 360 360" fill="none" xmlns="http://www.w3.org/2000/svg">
<path d="M259.147 118.88C247.057 103.225 230.597 91.5072 211.848 85.208C193.099 78.9087 172.902 78.3111 153.813 83.4907C134.724 88.6702 117.6 99.3944 104.606 114.307C91.6127 129.219 83.3332 147.65 80.8149 167.268C78.2966 186.887 81.6527 206.811 90.4588 224.522C99.2649 242.232 113.125 256.934 130.287 266.767C147.449 276.6 167.142 281.122 186.874 279.763C206.606 278.403 225.492 271.222 241.144 259.129C284.831 225.366 292.893 162.583 259.143 118.88H259.147Z" fill="#FF6C37"/>
<path d="M213.728 143.717L171.563 186.217L159.647 173.967C201.147 132.467 205.312 136.217 213.731 143.717H213.728Z" fill="white"/>
<path d="M171.563 187.379C171.189 187.37 170.833 187.222 170.563 186.963L158.563 174.963C158.293 174.684 158.142 174.31 158.142 173.921C158.142 173.532 158.293 173.159 158.563 172.879C199.478 131.964 205.062 133.879 214.728 142.629C214.89 142.759 215.019 142.924 215.106 143.112C215.193 143.301 215.235 143.507 215.228 143.714C215.29 144.12 215.134 144.536 214.812 144.798L172.647 186.966C172.351 187.238 171.964 187.386 171.563 187.382V187.379ZM161.728 173.963L171.563 183.798L211.562 143.798C210.181 142.067 208.211 140.906 206.027 140.537C203.844 140.168 201.601 140.617 199.728 141.798C192.478 145.048 180.813 154.964 161.728 173.963Z" fill="#FF6C37"/>
<path d="M183.646 197.967L172.146 186.217L214.312 144.549C225.646 155.633 208.812 174.133 183.646 197.964V197.967Z" fill="white"/>
<path d="M183.647 199.466C183.278 199.437 182.928 199.292 182.647 199.051L170.897 187.551C170.721 187.124 170.721 186.644 170.897 186.216C170.772 185.866 170.772 185.483 170.897 185.132L213.062 142.967C213.355 142.691 213.743 142.538 214.145 142.538C214.547 142.538 214.935 142.691 215.228 142.967C216.593 144.224 217.672 145.76 218.391 147.471C219.11 149.182 219.452 151.028 219.393 152.883C219.393 164.132 206.559 178.298 184.728 198.966C184.436 199.255 184.052 199.432 183.644 199.466H183.647ZM174.312 186.216L183.728 195.629C200.393 179.879 216.312 163.629 216.393 152.629C216.484 150.297 215.713 148.014 214.228 146.214L174.312 186.216Z" fill="#FF6C37"/>
<path d="M159.979 174.216L168.313 182.551C168.366 182.598 168.409 182.655 168.438 182.72C168.467 182.785 168.482 182.855 168.482 182.926C168.482 182.997 168.467 183.067 168.438 183.131C168.409 183.196 168.366 183.254 168.313 183.301L150.729 187.051C150.374 187.127 150.004 187.086 149.674 186.932C149.345 186.779 149.075 186.523 148.905 186.202C148.736 185.881 148.675 185.513 148.734 185.155C148.792 184.796 148.966 184.467 149.229 184.216L159.479 174.051C159.479 174.051 159.813 174.051 159.979 174.216Z" fill="white"/>
<path d="M150.313 188.717C149.758 188.71 149.213 188.561 148.732 188.283C148.25 188.006 147.848 187.61 147.563 187.133C147.243 186.528 147.127 185.836 147.232 185.161C147.337 184.485 147.659 183.861 148.148 183.383L158.313 173.133C158.68 172.805 159.154 172.624 159.646 172.624C160.138 172.624 160.612 172.805 160.979 173.133L169.313 181.467C169.807 181.936 170.001 182.645 169.813 183.302C169.626 183.958 169.076 184.48 168.398 184.636L150.813 188.386L150.313 188.717ZM159.648 176.052L150.232 185.467L165.816 182.133L159.648 176.052Z" fill="#FF6C37"/>
<path d="M236.147 120.299C230.116 114.48 220.641 114.237 214.316 119.727C207.991 125.218 206.909 134.643 211.835 141.424C216.76 148.205 226.044 150.105 233.232 145.799L221.897 134.465L236.147 120.299Z" fill="white"/>
<path d="M224.897 149.629C221.432 149.585 218.056 148.522 215.191 146.573C212.326 144.623 210.098 141.874 208.784 138.667C207.472 135.463 207.128 131.944 207.794 128.546C208.461 125.148 210.109 122.02 212.534 119.548C215.871 116.273 220.359 114.438 225.034 114.438C229.71 114.438 234.198 116.273 237.534 119.548C237.853 119.817 238.034 120.214 238.034 120.633C238.034 120.839 237.989 121.042 237.902 121.229C237.816 121.416 237.691 121.583 237.534 121.717L224.034 134.467L234.284 144.551C234.451 144.71 234.575 144.907 234.648 145.125C234.72 145.343 234.738 145.575 234.7 145.801C234.675 146.02 234.603 146.23 234.488 146.418C234.373 146.605 234.218 146.765 234.034 146.886C231.281 148.607 228.115 149.557 224.869 149.636L224.897 149.629ZM224.897 117.295C218.959 117.327 213.647 120.898 211.419 126.358C209.191 131.817 210.403 138.101 214.566 142.295C216.636 144.378 219.287 145.786 222.172 146.337C225.056 146.887 228.04 146.553 230.731 145.379L220.897 135.545C220.741 135.42 220.614 135.262 220.528 135.081C220.441 134.901 220.396 134.703 220.396 134.503C220.396 134.303 220.441 134.105 220.528 133.925C220.614 133.744 220.741 133.586 220.897 133.461L233.897 120.377C231.313 118.396 228.153 117.313 224.897 117.292V117.295Z" fill="#FF6C37"/>
<path d="M236.396 120.549L222.146 134.714L233.481 146.049C234.621 145.394 235.683 144.61 236.646 143.714C239.617 140.574 241.251 136.403 241.205 132.081C241.158 127.759 239.434 123.624 236.396 120.549Z" fill="white"/>
<path d="M233.228 147.299C233.041 147.309 232.854 147.277 232.681 147.205C232.507 147.133 232.353 147.023 232.228 146.883L220.894 135.549C220.737 135.424 220.611 135.265 220.524 135.085C220.438 134.904 220.393 134.707 220.393 134.506C220.393 134.306 220.438 134.109 220.524 133.928C220.611 133.748 220.737 133.589 220.894 133.464L235.059 119.549C235.196 119.342 235.382 119.173 235.6 119.056C235.818 118.939 236.062 118.878 236.309 118.878C236.557 118.878 236.8 118.939 237.018 119.056C237.237 119.173 237.422 119.342 237.559 119.549C239.222 121.178 240.543 123.123 241.445 125.269C242.347 127.416 242.812 129.721 242.812 132.049C242.812 134.377 242.347 136.682 241.445 138.828C240.543 140.974 239.222 142.919 237.559 144.549C236.578 145.589 235.456 146.486 234.225 147.214C233.915 147.37 233.557 147.401 233.225 147.299H233.228ZM224.062 134.467L233.478 143.883C234.126 143.429 234.739 142.928 235.312 142.383C238.08 139.623 239.639 135.876 239.647 131.967C239.653 128.469 238.378 125.09 236.062 122.468L224.062 134.467Z" fill="#FF6C37"/>
<path d="M215.478 145.467C214.35 144.407 212.86 143.817 211.311 143.817C209.763 143.817 208.273 144.407 207.144 145.467L169.397 183.13L175.647 189.464L215.563 154.464C216.171 153.881 216.654 153.179 216.982 152.402C217.309 151.625 217.474 150.789 217.466 149.946C217.458 149.103 217.277 148.27 216.936 147.499C216.594 146.729 216.098 146.036 215.478 145.464V145.467Z" fill="white"/>
<path d="M175.313 190.967C174.94 190.958 174.583 190.809 174.313 190.551L167.979 184.217C167.709 183.937 167.558 183.564 167.558 183.175C167.558 182.786 167.709 182.412 167.979 182.133L205.728 144.549C206.816 143.463 208.204 142.728 209.714 142.441C211.224 142.154 212.785 142.326 214.195 142.937C215.605 143.548 216.799 144.568 217.623 145.866C218.446 147.163 218.861 148.678 218.813 150.214C218.769 151.257 218.519 152.28 218.075 153.225C217.631 154.169 217.003 155.015 216.228 155.714L176.313 190.714C176.023 190.919 175.666 191.008 175.313 190.964V190.967ZM170.898 183.129L175.063 187.379L214.228 153.295C215.197 152.452 215.775 151.245 215.813 149.961C215.85 148.677 215.344 147.42 214.397 146.545C213.523 145.675 212.339 145.186 211.105 145.186C209.871 145.186 208.687 145.675 207.813 146.545L170.898 183.129Z" fill="#FF6C37"/>
<path d="M140.147 226.047C140.041 226.192 139.983 226.367 139.983 226.547C139.983 226.727 140.041 226.902 140.147 227.047L141.813 234.297C141.879 234.724 141.816 235.161 141.631 235.551C141.446 235.941 141.148 236.267 140.775 236.485C140.404 236.702 139.973 236.796 139.545 236.752C139.117 236.709 138.714 236.531 138.394 236.244L126.979 225.244L162.562 189.379H174.897L183.231 197.713C170.23 209.08 155.734 218.613 140.147 226.047Z" fill="white"/>
<path d="M139.398 238.298C138.454 238.279 137.523 237.892 136.898 237.213L125.983 226.298C125.826 226.173 125.7 226.014 125.613 225.834C125.526 225.654 125.481 225.456 125.481 225.256C125.481 225.056 125.526 224.858 125.613 224.678C125.7 224.497 125.826 224.339 125.983 224.214L161.813 188.298C162.014 188.085 162.276 187.94 162.563 187.883H174.979C175.302 187.768 175.655 187.768 175.979 187.883L184.313 196.217C184.472 196.363 184.592 196.545 184.665 196.749C184.737 196.952 184.759 197.169 184.729 197.383C184.735 197.59 184.693 197.795 184.606 197.983C184.519 198.171 184.39 198.337 184.229 198.467L183.563 199.051C170.51 209.933 156.149 219.143 140.814 226.467L142.398 233.217C142.52 233.737 142.525 234.279 142.412 234.802C142.298 235.324 142.07 235.815 141.742 236.238C141.415 236.661 140.997 237.006 140.52 237.247C140.042 237.488 139.517 237.62 138.982 237.632L139.398 238.298ZM129.232 225.214L139.064 235.129C139.155 235.211 139.274 235.256 139.396 235.256C139.519 235.256 139.638 235.211 139.729 235.129C139.791 235.044 139.824 234.942 139.824 234.837C139.824 234.732 139.791 234.63 139.729 234.545L138.064 227.295C137.932 226.774 137.985 226.225 138.213 225.739C138.441 225.253 138.83 224.861 139.314 224.629C154.237 217.403 168.227 208.393 180.979 197.795L174.145 190.961H162.979L129.232 225.214Z" fill="#FF6C37"/>
<path d="M118.398 233.797L126.732 225.463L139.566 238.297L119.151 236.881C118.8 236.854 118.467 236.717 118.199 236.489C117.932 236.261 117.743 235.954 117.66 235.613C117.576 235.271 117.603 234.912 117.736 234.586C117.869 234.261 118.102 233.986 118.401 233.8L118.398 233.797Z" fill="white"/>
<path d="M139.814 239.547L119.479 238.132C118.273 238.019 117.236 237.194 116.811 236.091C116.386 234.988 116.645 233.679 117.479 232.798L125.814 224.463C126.093 224.193 126.467 224.042 126.856 224.042C127.245 224.042 127.618 224.193 127.898 224.463L140.648 237.213C140.824 237.455 140.92 237.747 140.92 238.046C140.92 238.345 140.824 238.637 140.648 238.879C140.455 239.19 140.16 239.426 139.814 239.544V239.547ZM119.479 234.882L136.145 235.966L126.979 227.382L119.479 234.882Z" fill="#FF6C37"/>
<path d="M176.063 190.386L159.229 192.97L168.978 183.305L176.063 190.386Z" fill="white"/>
<path d="M159.229 194.548C158.949 194.555 158.673 194.48 158.436 194.332C158.198 194.183 158.01 193.968 157.894 193.714C157.717 193.472 157.621 193.181 157.621 192.881C157.621 192.581 157.717 192.29 157.894 192.048L167.56 182.298C167.853 182.023 168.24 181.869 168.642 181.869C169.045 181.869 169.432 182.023 169.725 182.298L176.813 189.379C176.954 189.604 177.029 189.864 177.029 190.129C177.029 190.395 176.954 190.655 176.813 190.879C176.743 191.153 176.596 191.401 176.389 191.593C176.183 191.785 175.925 191.914 175.647 191.964L158.982 194.548H159.229ZM168.978 185.464L163.563 190.879L172.897 189.464L168.978 185.464Z" fill="#FF6C37"/>
<path d="M176.062 190.379L164.312 191.879C163.998 191.951 163.669 191.919 163.374 191.789C163.079 191.658 162.834 191.436 162.675 191.156C162.516 190.875 162.452 190.551 162.492 190.231C162.532 189.911 162.674 189.612 162.897 189.379L168.981 183.295L176.062 190.379Z" fill="white"/>
<path d="M163.978 193.467C163.434 193.461 162.9 193.312 162.432 193.034C161.964 192.756 161.578 192.358 161.313 191.882C160.995 191.312 160.871 190.653 160.961 190.006C161.052 189.359 161.351 188.759 161.813 188.298L167.897 182.214C168.19 181.938 168.578 181.785 168.98 181.785C169.382 181.785 169.769 181.938 170.063 182.214L177.147 189.298C177.358 189.498 177.506 189.754 177.574 190.036C177.642 190.318 177.626 190.614 177.529 190.888C177.432 191.161 177.258 191.401 177.028 191.577C176.797 191.754 176.521 191.86 176.231 191.882L164.566 193.382L163.978 193.467ZM163.978 190.382L172.813 189.298L168.897 185.382L163.897 190.382H163.978ZM236.478 130.133C236.321 129.87 236.073 129.674 235.781 129.581C235.489 129.489 235.173 129.507 234.893 129.633C234.755 129.703 234.633 129.799 234.533 129.918C234.433 130.036 234.358 130.173 234.312 130.32C234.219 130.618 234.249 130.941 234.393 131.217C234.978 132.445 234.815 133.898 233.978 134.967C233.874 135.07 233.792 135.193 233.738 135.33C233.685 135.466 233.66 135.611 233.665 135.758C233.668 136.051 233.78 136.332 233.978 136.548C234.192 136.633 234.43 136.633 234.643 136.548C234.837 136.597 235.041 136.592 235.232 136.533C235.423 136.474 235.595 136.363 235.728 136.214C236.414 135.374 236.848 134.357 236.981 133.28C237.114 132.203 236.939 131.111 236.478 130.13V130.133Z" fill="#FF6C37"/>
</svg>
