<svg width="360" height="360" viewBox="0 0 360 360" fill="none" xmlns="http://www.w3.org/2000/svg">
<path d="M262.118 91.5915C259.244 98.577 255.529 104.77 251.417 110.318C233.284 91.8392 207.918 80.0977 179.927 80.0977C124.935 80.0977 80 124.785 80 179.975C80 208.809 92.336 234.769 111.905 253.1L115.621 256.419C132.911 271.034 155.403 279.902 179.877 279.902C232.392 279.902 275.643 238.93 279.358 187.208C282.331 162.09 274.701 129.937 262.118 91.5915ZM126.372 253.942C123.498 257.657 118.148 258.054 114.432 255.18C110.716 252.307 110.32 246.956 113.193 243.241C116.067 239.525 121.417 239.129 125.133 242.002C128.651 244.876 129.245 250.226 126.372 253.942ZM261.523 224.068C237 256.815 184.287 245.718 150.697 247.353C150.697 247.353 144.702 247.749 138.757 248.591C138.757 248.591 141.036 247.551 143.91 246.51C167.591 238.286 178.738 236.602 193.155 229.22C220.155 215.398 247.106 185.127 252.506 153.817C242.202 183.889 210.891 209.849 182.454 220.352C162.884 227.585 127.66 234.571 127.66 234.571L126.223 233.729C102.344 221.987 101.501 170.067 145.198 153.371C164.371 145.939 182.503 150.051 203.311 145.147C225.357 139.994 250.921 123.497 261.176 101.896C272.621 136.725 286.641 190.676 261.523 224.068Z" fill="#6CB52D"/>
<path d="M126.372 253.942C123.498 257.657 118.148 258.054 114.432 255.18C110.716 252.307 110.32 246.956 113.193 243.241C116.067 239.525 121.417 239.129 125.133 242.002C128.651 244.875 129.245 250.226 126.372 253.942Z" fill="#6CB52D"/>
</svg>
