<svg width="360" height="360" viewBox="0 0 360 360" fill="none" xmlns="http://www.w3.org/2000/svg">
<g clip-path="url(#clip0_301_8858)">
<path d="M180 280C235.228 280 280 235.228 280 180C280 124.772 235.228 80 180 80C124.772 80 80 124.772 80 180C80 235.228 124.772 280 180 280Z" fill="white"/>
<path d="M246.12 255.023L156.824 140H140V219.967H153.46V157.093L235.555 263.161C239.259 260.682 242.788 257.962 246.12 255.023Z" fill="url(#paint0_linear_301_8858)"/>
<path d="M221.112 140H207.778V220H221.112V140Z" fill="url(#paint1_linear_301_8858)"/>
</g>
<defs>
<linearGradient id="paint0_linear_301_8858" x1="201.111" y1="209.445" x2="240.556" y2="258.333" gradientUnits="userSpaceOnUse">
<stop/>
<stop offset="1" stop-opacity="0"/>
</linearGradient>
<linearGradient id="paint1_linear_301_8858" x1="214.445" y1="140" x2="214.222" y2="198.75" gradientUnits="userSpaceOnUse">
<stop/>
<stop offset="1" stop-opacity="0"/>
</linearGradient>
<clipPath id="clip0_301_8858">
<rect width="200" height="200" fill="white" transform="translate(80 80)"/>
</clipPath>
</defs>
</svg>
