<svg width="360" height="360" viewBox="0 0 360 360" fill="none" xmlns="http://www.w3.org/2000/svg">
<path d="M180 197.633C189.738 197.633 197.632 189.739 197.632 180.001C197.632 170.262 189.738 162.368 180 162.368C170.262 162.368 162.367 170.262 162.367 180.001C162.367 189.739 170.262 197.633 180 197.633Z" fill="#61DAFB"/>
<path d="M180 216.125C232.253 216.125 274.613 199.951 274.613 180C274.613 160.049 232.253 143.875 180 143.875C127.747 143.875 85.3867 160.049 85.3867 180C85.3867 199.951 127.747 216.125 180 216.125Z" stroke="#61DAFB" stroke-width="10.0095"/>
<path d="M148.715 198.063C174.841 243.315 210.028 271.913 227.307 261.937C244.585 251.962 237.412 207.19 211.285 161.937C185.158 116.685 149.972 88.0869 132.693 98.0625C115.415 108.038 122.588 152.81 148.715 198.063Z" stroke="#61DAFB" stroke-width="10.0095"/>
<path d="M148.715 161.937C122.588 207.19 115.415 251.962 132.693 261.937C149.972 271.913 185.158 243.315 211.285 198.062C237.412 152.81 244.585 108.038 227.307 98.0625C210.028 88.0868 174.841 116.685 148.715 161.937Z" stroke="#61DAFB" stroke-width="10.0095"/>
</svg>
