<svg width="360" height="360" viewBox="0 0 360 360" fill="none" xmlns="http://www.w3.org/2000/svg">
<path d="M180 280C235.228 280 280 235.228 280 180C280 124.772 235.228 80 180 80C124.772 80 80 124.772 80 180C80 235.228 124.772 280 180 280Z" fill="white"/>
<path fill-rule="evenodd" clip-rule="evenodd" d="M229.929 213.476C231.054 227.93 231.054 234.706 231.054 242.102H197.611C197.611 240.491 197.64 239.017 197.669 237.523C197.76 232.878 197.854 228.033 197.101 218.251C196.107 203.928 189.939 200.745 178.599 200.745H168.551H126V174.687H180.19C194.515 174.687 201.678 170.329 201.678 158.792C201.678 148.647 194.515 142.499 180.19 142.499H126V117H186.159C218.589 117 234.704 132.317 234.704 156.784C234.704 175.085 223.364 187.02 208.044 189.009C220.976 191.595 228.536 198.955 229.929 213.476Z" fill="black"/>
<path d="M126 242.103V222.677H161.361C167.268 222.677 168.55 227.057 168.55 229.67V242.103H126Z" fill="black"/>
</svg>
