<svg width="360" height="360" viewBox="0 0 360 360" fill="none" xmlns="http://www.w3.org/2000/svg">
<path d="M180 120.017C153.333 120.017 136.666 133.347 129.999 160.004C140 146.674 151.667 141.677 164.999 145.008C172.607 146.909 178.044 152.429 184.064 158.536C193.868 168.485 205.214 179.999 230.001 179.999C256.666 179.999 273.335 166.669 280 140.009C270.001 153.339 258.334 158.338 244.999 155.007C237.394 153.106 231.957 147.587 225.937 141.48C216.134 131.531 204.784 120.017 180 120.017ZM129.999 179.999C103.334 179.999 86.665 193.329 80 219.989C89.9987 206.659 101.666 201.66 115.001 204.993C122.606 206.897 128.043 212.414 134.063 218.518C143.866 228.467 155.216 239.984 180 239.984C206.668 239.984 223.334 226.654 230.001 199.994C220 213.324 208.333 218.323 195.001 214.99C187.393 213.091 181.956 207.569 175.936 201.464C166.132 191.516 154.786 179.999 129.999 179.999Z" fill="#06B6D4"/>
</svg>
