<svg width="40" height="40" viewBox="0 0 40 40" fill="none" xmlns="http://www.w3.org/2000/svg">
<rect width="40" height="40" rx="20" fill="black"/>
<g clip-path="url(#clip0_407_856)">
<path d="M30 22.355C30 21.613 29.436 21.009 28.74 21.009H18.676C17.98 21.009 17.416 21.613 17.416 22.355C17.416 23.097 17.979 23.701 18.676 23.701H28.74C29.436 23.702 30 23.098 30 22.355Z" fill="#B3B3B3"/>
<path d="M11.482 26.187L15.795 30.548C16.768 31.527 18.113 32 19.598 32C21.083 32 22.428 31.488 23.403 30.506L25.991 27.869C26.501 27.355 26.483 26.504 25.952 25.969C25.421 25.434 24.577 25.416 24.068 25.93L21.392 28.537C20.93 29.004 20.29 29.199 19.583 29.199C18.876 29.199 18.237 29.004 17.773 28.537L13.475 24.174C13.012 23.707 12.779 23.024 12.779 22.311C12.779 21.598 13.012 20.954 13.475 20.487L17.76 16.107C18.223 15.64 18.876 15.462 19.582 15.462C20.288 15.462 20.928 15.657 21.391 16.124L24.067 18.73C24.577 19.245 25.421 19.227 25.952 18.692C26.483 18.156 26.501 17.305 25.991 16.791L23.403 14.155C22.7451 13.4976 21.9166 13.0369 21.011 12.825L20.977 12.818L23.424 10.315C23.936 9.80099 23.918 8.94899 23.387 8.41399C22.856 7.87899 22.011 7.86199 21.5 8.37599L11.482 18.476C10.509 19.458 10 20.813 10 22.311C10 23.809 10.509 25.207 11.482 26.187Z" fill="#E7A41F"/>
<path d="M16.115 30.814C15.9407 30.7167 15.7811 30.5952 15.641 30.453C14.314 29.12 12.981 27.793 11.657 26.456C9.668 24.448 9.355 21.519 10.871 19.136C11.1132 18.7717 11.3946 18.4351 11.71 18.132L21.333 8.489C21.958 7.863 22.831 7.837 23.412 8.422C23.972 8.985 23.939 9.877 23.334 10.488C22.565 11.264 21.795 12.038 21.025 12.813C20.984 12.935 20.885 13.013 20.8 13.1C19.937 13.976 19.05 14.829 18.199 15.718C18.088 15.834 17.937 15.904 17.827 16.023C16.404 17.446 14.964 18.853 13.561 20.295C12.426 21.462 12.464 23.233 13.629 24.422C14.937 25.758 16.268 27.072 17.59 28.396C17.657 28.463 17.726 28.528 17.794 28.594C18.262 28.897 18.268 29.844 17.977 30.265C17.656 30.73 17.237 31.015 16.644 30.993C16.445 30.987 16.281 30.907 16.115 30.814Z" fill="white"/>
</g>
<defs>
<clipPath id="clip0_407_856">
<rect width="24" height="24" fill="white" transform="translate(8 8)"/>
</clipPath>
</defs>
</svg>
